<svg xmlns="http://www.w3.org/2000/svg" width="61.617" height="68.085" viewBox="0 0 61.617 68.085">
  <defs>
    <style>
      .cls-1 {
        fill: #b1dbfc;
      }

      .cls-2 {
        fill: #8bcaff;
      }

      .cls-3 {
        fill: #dfebfa;
      }

      .cls-4 {
        fill: #695d67;
      }

      .cls-5 {
        fill: #554e56;
      }

      .cls-6 {
        fill: #fff;
      }

      .cls-7 {
        fill: #fec458;
      }

      .cls-8 {
        fill: #5cb3f8;
      }

      .cls-9 {
        fill: #ff656f;
      }

      .cls-10 {
        fill: #ff4756;
      }

      .cls-11 {
        fill: #eedc9a;
      }

      .cls-12 {
        fill: #f2c194;
      }

      .cls-13 {
        fill: #c4d4e0;
      }

      .cls-14 {
        fill: #396795;
      }

      .cls-15 {
        fill: #26507a;
      }

      .cls-16 {
        fill: #a6b2bc;
      }

      .cls-17 {
        fill: #f4ceaf;
      }

      .cls-18 {
        fill: #966342;
      }

      .cls-19 {
        fill: #ad7d4d;
      }

      .cls-20 {
        fill: #e7999b;
      }

      .cls-21 {
        fill: #e88604;
      }

      .cls-22 {
        fill: #eebe33;
      }
    </style>
  </defs>
  <g id="Group_14825" data-name="Group 14825" transform="translate(-1219.19 -373.55)">
    <g id="ebook" transform="translate(1219.19 364.99)">
      <path id="Path_16849" data-name="Path 16849" class="cls-1" d="M174.47,384.795v3.793a4.267,4.267,0,0,1-1.837,3.559l-2.758,1.84h20.729l-2.758-1.84a4.267,4.267,0,0,1-1.837-3.559v-3.793Z" transform="translate(-149.432 -321.077)"/>
      <path id="Path_16850" data-name="Path 16850" class="cls-2" d="M174.47,384.795v3.793a4.267,4.267,0,0,1-1.837,3.559l-2.758,1.84h6.691l.058-.039a4.267,4.267,0,0,0,1.837-3.559v-2.626a1.167,1.167,0,0,1,1.167-1.167h6.382v-1.8Z" transform="translate(-149.431 -321.077)"/>
      <path id="Path_16851" data-name="Path 16851" class="cls-3" d="M169.368,460.07H144.779a1.24,1.24,0,0,0-1.24,1.24V462.7a1.24,1.24,0,0,0,1.24,1.24h24.589a1.24,1.24,0,0,0,1.24-1.24V461.31A1.24,1.24,0,0,0,169.368,460.07Z" transform="translate(-126.265 -387.293)"/>
      <path id="Path_16852" data-name="Path 16852" class="cls-1" d="M150.41,462.7V461.31a1.24,1.24,0,0,1,1.24-1.24h-6.871a1.24,1.24,0,0,0-1.24,1.24V462.7a1.24,1.24,0,0,0,1.24,1.24h6.871A1.24,1.24,0,0,1,150.41,462.7Z" transform="translate(-126.265 -387.293)"/>
      <g id="Group_14816" data-name="Group 14816" transform="translate(0 19.791)">
        <g id="Group_14815" data-name="Group 14815" transform="translate(0 0)">
          <path id="Path_16853" data-name="Path 16853" class="cls-4" d="M58.044,19.791H3.573A3.577,3.577,0,0,0,0,23.364V60.308a3.577,3.577,0,0,0,3.573,3.573H58.044a3.577,3.577,0,0,0,3.573-3.573V23.364A3.577,3.577,0,0,0,58.044,19.791Z" transform="translate(0 -19.791)"/>
        </g>
      </g>
      <path id="Path_16854" data-name="Path 16854" class="cls-5" d="M4.133,60.309V23.364a3.577,3.577,0,0,1,3.573-3.573H3.573A3.577,3.577,0,0,0,0,23.364V60.308a3.577,3.577,0,0,0,3.573,3.573H7.706A3.577,3.577,0,0,1,4.133,60.309Z" transform="translate(0 0)"/>
      <g id="Group_14818" data-name="Group 14818" transform="translate(3.868 28.009)">
        <g id="Group_14817" data-name="Group 14817" transform="translate(0 0)">
          <path id="Path_16855" data-name="Path 16855" class="cls-6" d="M32.137,88.074v31.491a.514.514,0,0,0,.514.514H85.5a.514.514,0,0,0,.514-.514V88.074H32.137Z" transform="translate(-32.137 -88.074)"/>
        </g>
      </g>
      <path id="Path_16856" data-name="Path 16856" class="cls-7" d="M35.857,119.567V88.076h-3.72v31.491a.514.514,0,0,0,.514.514h3.72A.514.514,0,0,1,35.857,119.567Z" transform="translate(-28.269 -60.067)"/>
      <path id="Path_16857" data-name="Path 16857" class="cls-8" d="M125.409,51.928H77.5v4.6h48.423V52.442A.514.514,0,0,0,125.409,51.928Z" transform="translate(-68.174 -28.269)"/>
      <path id="Path_16858" data-name="Path 16858" class="cls-9" d="M37.72,51.928H32.651a.514.514,0,0,0-.514.514v4.084H37.72Z" transform="translate(-28.269 -28.269)"/>
      <path id="Path_16859" data-name="Path 16859" class="cls-10" d="M36.371,51.928H32.651a.514.514,0,0,0-.514.514v4.084h3.719V52.442A.514.514,0,0,1,36.371,51.928Z" transform="translate(-28.269 -28.269)"/>
    </g>
    <g id="Flat" transform="translate(1214.55 349.55)">
      <path id="Path_16866" data-name="Path 16866" class="cls-11" d="M54.929,99.462a3.46,3.46,0,0,1-1.386,2.773v1.386H49.384v-1.386a3.466,3.466,0,1,1,5.546-2.773Z" transform="translate(-29.224 -65.758)"/>
      <path id="Path_16867" data-name="Path 16867" class="cls-12" d="M154.773,152h3.119v5.546h-3.119a2.773,2.773,0,0,1,0-5.546Z" transform="translate(-124.215 -116.909)"/>
      <path id="Path_16868" data-name="Path 16868" class="cls-12" d="M2.773,0H5.546V5.546H2.773A2.773,2.773,0,1,1,2.773,0Z" transform="translate(51.354 40.637) rotate(180)"/>
      <path id="Path_16869" data-name="Path 16869" class="cls-13" d="M122.66,313.33H88a12.81,12.81,0,0,1,1.146-5.295,11.409,11.409,0,0,1,7.774-6.387l2.891-.68,1.3-.307a2.773,2.773,0,0,0,2.138-2.7V296h4.159v1.964a2.773,2.773,0,0,0,2.138,2.7l1.3.307,2.891.68a11.411,11.411,0,0,1,7.773,6.384A12.809,12.809,0,0,1,122.66,313.33Z" transform="translate(-65.761 -248.431)"/>
      <path id="Path_16870" data-name="Path 16870" class="cls-14" d="M101.864,365.7H88a12.81,12.81,0,0,1,1.146-5.295,11.409,11.409,0,0,1,7.133-6.216c.211-.063.425-.12.641-.171l2.891-.68,1.274,5.518a30.4,30.4,0,0,1,.77,6.145Q101.865,365.351,101.864,365.7Z" transform="translate(-65.761 -300.802)"/>
      <path id="Path_16871" data-name="Path 16871" class="cls-15" d="M177.386,362.235l1.386-3.466H176l.654-4.579c.211-.063.425-.12.641-.171l2.891-.68,1.274,5.518a30.4,30.4,0,0,1,.77,6.145Z" transform="translate(-146.136 -300.802)"/>
      <path id="Path_16872" data-name="Path 16872" class="cls-14" d="M341.864,365.7H328q0-.35.009-.7a30.4,30.4,0,0,1,.77-6.145l1.274-5.518,2.891.68q.324.075.641.171a11.411,11.411,0,0,1,7.132,6.214,12.809,12.809,0,0,1,1.147,5.3Z" transform="translate(-284.965 -300.802)"/>
      <path id="Path_16873" data-name="Path 16873" class="cls-15" d="M331.557,358.769l1.386,3.466L328.1,365a30.4,30.4,0,0,1,.77-6.145l1.274-5.518,2.891.68q.324.075.641.171l.654,4.579Z" transform="translate(-285.056 -300.802)"/>
      <path id="Path_16874" data-name="Path 16874" class="cls-16" d="M222.239,338.08l-2.773,3.466L216,337.386,218.08,336Z" transform="translate(-182.67 -284.965)"/>
      <path id="Path_16875" data-name="Path 16875" class="cls-16" d="M294.239,337.386l-3.466,4.159L288,338.08l4.159-2.08Z" transform="translate(-248.431 -284.965)"/>
      <path id="Path_16876" data-name="Path 16876" class="cls-17" d="M215.251,104v9.7a7.625,7.625,0,0,1-7.625,7.625h0A7.625,7.625,0,0,1,200,113.7v-9.648Z" transform="translate(-168.056 -73.068)"/>
      <ellipse id="Ellipse_1650" data-name="Ellipse 1650" class="cls-18" cx="0.5" cy="1" rx="0.5" ry="1" transform="translate(35.45 36.449)"/>
      <circle id="Ellipse_1651" data-name="Ellipse 1651" class="cls-18" cx="1" cy="1" r="1" transform="translate(42.45 36.449)"/>
      <path id="Path_16877" data-name="Path 16877" class="cls-19" d="M219.466,153.386h-2.773a.693.693,0,0,1,0-1.386h2.773a.693.693,0,1,1,0,1.386Z" transform="translate(-182.67 -116.909)"/>
      <path id="Path_16878" data-name="Path 16878" class="cls-19" d="M315.466,153.386h-2.773a.693.693,0,0,1,0-1.386h2.773a.693.693,0,0,1,0,1.386Z" transform="translate(-270.351 -116.909)"/>
      <path id="Path_16879" data-name="Path 16879" class="cls-19" d="M180.1,30.932v4.159h-1.386l-3.466-2.773L166.2,34.9a4.864,4.864,0,0,1-6.2-4.677V28.159a2.3,2.3,0,0,1,2.314-2.3,2.25,2.25,0,0,1,1.607.678,2.3,2.3,0,0,0,3.249,0l1.316-1.316A4.16,4.16,0,0,1,171.427,24h1.743a4.159,4.159,0,0,1,4.159,4.159,2.773,2.773,0,0,1,2.773,2.773Z" transform="translate(-131.522)"/>
      <path id="Path_16880" data-name="Path 16880" class="cls-18" d="M340.852,74.773v4.159h-1.386L336,76.159a5.021,5.021,0,0,1,1.47-3.55L338.08,72a2.773,2.773,0,0,1,2.773,2.772Z" transform="translate(-292.272 -43.841)"/>
      <path id="Path_16881" data-name="Path 16881" class="cls-12" d="M281.384,179.464a.694.694,0,0,1-.658-.474l-.693-2.08a.693.693,0,0,1,1.315-.439l.693,2.08a.694.694,0,0,1-.658.913Z" transform="translate(-241.122 -138.827)"/>
      <rect id="Rectangle_10108" data-name="Rectangle 10108" class="cls-20" width="3" height="3" rx="1.5" transform="translate(37.45 42.449)"/>
      <path id="Path_16882" data-name="Path 16882" class="cls-12" d="M266.08,229.546a2.082,2.082,0,0,1-2.08-2.08V226.08a2.08,2.08,0,0,1,4.159,0v1.386A2.082,2.082,0,0,1,266.08,229.546Zm0-4.159a.694.694,0,0,0-.693.693v1.386a.693.693,0,1,0,1.386,0V226.08A.694.694,0,0,0,266.08,225.386Z" transform="translate(-226.511 -182.67)"/>
      <path id="Path_16883" data-name="Path 16883" class="cls-21" d="M67.453,136.553l-1.36-.272.527-2.637H65.539l.527,2.637-1.36.272-.693-3.466a.693.693,0,0,1,.68-.829h2.773a.693.693,0,0,1,.68.829Z" transform="translate(-43.841 -98.877)"/>
      <path id="Path_16884" data-name="Path 16884" class="cls-22" d="M72,200h2.773v.693a1.386,1.386,0,0,1-2.773,0Z" transform="translate(-51.148 -160.75)"/>
      <rect id="Rectangle_10109" data-name="Rectangle 10109" class="cls-16" width="6" height="2" rx="1" transform="translate(19.45 37.449)"/>
      <g id="Group_14826" data-name="Group 14826" transform="translate(16 27.466)">
        <path id="Path_16885" data-name="Path 16885" class="cls-22" d="M80,64h1.386v1.386H80Z" transform="translate(-74.454 -64)"/>
        <path id="Path_16886" data-name="Path 16886" class="cls-22" d="M0,0H1.387V1.386H0Z" transform="translate(9.178 2.318) rotate(-45)"/>
        <path id="Path_16887" data-name="Path 16887" class="cls-22" d="M144,128h1.386v1.386H144Z" transform="translate(-132.909 -122.454)"/>
        <path id="Path_16888" data-name="Path 16888" class="cls-22" d="M0,0H1.386V1.386H0Z" transform="translate(1.336 2.317) rotate(-45)"/>
        <path id="Path_16889" data-name="Path 16889" class="cls-22" d="M16,128h1.386v1.386H16Z" transform="translate(-16 -122.454)"/>
      </g>
      <path id="Path_16890" data-name="Path 16890" class="cls-17" d="M259.239,300.039l-3.015,1.507-3.015-1.507a2.768,2.768,0,0,0,.935-2.075V296H258.3v1.964A2.768,2.768,0,0,0,259.239,300.039Z" transform="translate(-216.656 -248.431)"/>
      <path id="Path_16891" data-name="Path 16891" class="cls-14" d="M33.012,409.386v6.239H24v-6.239A1.386,1.386,0,0,1,25.386,408h6.239a1.386,1.386,0,0,1,1.386,1.386Z" transform="translate(-7.307 -350.726)"/>
      <path id="Path_16892" data-name="Path 16892" class="cls-15" d="M98.773,409.386v6.239H97.386v-6.239A1.386,1.386,0,0,0,96,408h1.386a1.386,1.386,0,0,1,1.386,1.386Z" transform="translate(-73.068 -350.726)"/>
      <path id="Path_16893" data-name="Path 16893" class="cls-17" d="M46.932,305.386v1.386a1.386,1.386,0,0,1-1.386,1.386v.612a3.257,3.257,0,0,1-.093.773,3.2,3.2,0,0,1-.254.695,3.273,3.273,0,0,0-.347,1.468v1.3H40v-7.625A1.386,1.386,0,0,1,41.386,304h4.159A1.386,1.386,0,0,1,46.932,305.386Z" transform="translate(-21.92 -255.738)"/>
      <path id="Path_16894" data-name="Path 16894" class="cls-17" d="M73.386,248a1.386,1.386,0,0,1,1.386,1.386v3.466H72v-3.466A1.386,1.386,0,0,1,73.386,248Z" transform="translate(-51.148 -204.59)"/>
      <path id="Path_16895" data-name="Path 16895" class="cls-12" d="M74.773,330.08v.612a3.257,3.257,0,0,1-.093.773A2.777,2.777,0,0,1,72,328.693a.693.693,0,0,1,1.386,0,1.388,1.388,0,0,0,1.386,1.386Z" transform="translate(-51.148 -277.658)"/>
      <path id="Path_16896" data-name="Path 16896" class="cls-12" d="M74.773,282.08H72v-.693L74.773,280Z" transform="translate(-51.148 -233.818)"/>
    </g>
  </g>
</svg>
