<svg xmlns="http://www.w3.org/2000/svg" width="216.818" height="179" viewBox="0 0 216.818 179">
  <g id="Group_17208" data-name="Group 17208" transform="translate(-753.648 -216.069)">
    <g id="Group_17207" data-name="Group 17207" transform="translate(753.648 216.069)">
      <path id="Path_21942" data-name="Path 21942" d="M711.828,295.684c-1.749,1.994-7.953,8.75-10.036,10.328-14.166,10.726-66.7,36.5-136.848,12.022-6.157-3.271-27.569-18.523-30.616-21.7-1.321-1.375-2.408-2.72-3.843-4.2a39.155,39.155,0,0,1-3.5-3.7c-37.521-50.022,5.4-112.122,59.382-82.907,43.993,23.81,84.632,15.649,92.717,12.3a34.441,34.441,0,0,1,3.981-1.393c6.761-1.865,24.464-5.174,36.854,6.726,5.615,5.393,8.824,13.1,9.5,21.418a70.27,70.27,0,0,1-11.349,44.176C716.436,291.205,714.077,293.119,711.828,295.684Z" transform="translate(-512.808 -149.261)" fill="#efefef"/>
      <circle id="Ellipse_1738" data-name="Ellipse 1738" cx="26.069" cy="26.069" r="26.069" transform="translate(75.692 41.25) rotate(-52.296)" fill="#efefef"/>
    </g>
    <g id="Group_17218" data-name="Group 17218" transform="translate(-4303.982 -5676.908)">
      <g id="Group_17123" data-name="Group 17123" transform="translate(5100 5947)">
        <g id="Group_17020" data-name="Group 17020" transform="translate(61.232 9.489)">
          <g id="Group_16994" data-name="Group 16994">
            <g id="Group_16992" data-name="Group 16992" transform="translate(36.078 62.589)">
              <path id="Path_21802" data-name="Path 21802" d="M696.311,842.6H683.7l-5.438,15.012h23.491Z" transform="translate(-678.259 -842.602)" fill="#1b2135"/>
              <path id="Path_21803" data-name="Path 21803" d="M699.123,857.753h11.216l-2.506-6.863-2.9-7.841H692.317l-.059.061-2.409,6.6Z" transform="translate(-686.879 -842.934)" fill="#0d111c"/>
            </g>
            <path id="Path_21804" data-name="Path 21804" d="M630.918,683.516a5.877,5.877,0,0,1-4.238,1.725H543.5a5.941,5.941,0,0,1-6.014-5.963V625.2h95.156v54.082A5.874,5.874,0,0,1,630.918,683.516Z" transform="translate(-537.49 -618.328)" fill="#777"/>
            <path id="Path_21805" data-name="Path 21805" d="M630.918,600.125a5.874,5.874,0,0,0-4.238-1.731H543.5a5.949,5.949,0,0,0-6.014,5.972V658.44h95.156V604.366A5.878,5.878,0,0,0,630.918,600.125Z" transform="translate(-537.49 -598.394)" fill="#949494"/>
            <path id="Path_21806" data-name="Path 21806" d="M545.177,662.113v-52.1a3.98,3.98,0,0,1,4.044-4.025H632.4a4.015,4.015,0,0,1,4.086,4.025v52.1Z" transform="translate(-543.207 -604.043)" fill="#dfeaf4"/>
            <path id="Path_21807" data-name="Path 21807" d="M550.227,664.573v-50.8a2.687,2.687,0,0,1,2.75-2.731h83.176a2.727,2.727,0,0,1,2.793,2.731v50.8Z" transform="translate(-546.963 -607.799)" fill="#fff"/>
            <rect id="Rectangle_10856" data-name="Rectangle 10856" width="39.69" height="2.544" transform="translate(27.987 77.346)" fill="#1b2135"/>
            <g id="Group_16993" data-name="Group 16993" transform="translate(77.341 61.333)">
              <path id="Path_21808" data-name="Path 21808" d="M842,839.073a1.369,1.369,0,1,1-1.368-1.37A1.37,1.37,0,0,1,842,839.073Z" transform="translate(-839.26 -837.703)" fill="#c0d2e2"/>
              <path id="Path_21809" data-name="Path 21809" d="M858.97,839.073a1.37,1.37,0,1,1-1.368-1.37A1.369,1.369,0,0,1,858.97,839.073Z" transform="translate(-851.881 -837.703)" fill="#c0d2e2"/>
              <path id="Path_21810" data-name="Path 21810" d="M875.951,839.073a1.37,1.37,0,1,1-1.371-1.37A1.37,1.37,0,0,1,875.951,839.073Z" transform="translate(-864.51 -837.703)" fill="#c0d2e2"/>
            </g>
          </g>
          <g id="Group_17124" data-name="Group 17124" transform="translate(11.65 10.409)">
            <g id="Group_16997" data-name="Group 16997" transform="translate(30.723 0.322)">
              <g id="Group_16995" data-name="Group 16995" transform="translate(0 4.788)">
                <rect id="Rectangle_10857" data-name="Rectangle 10857" width="10.66" height="2.37" fill="#cfe0f3"/>
                <rect id="Rectangle_10858" data-name="Rectangle 10858" width="18.502" height="2.37" transform="translate(12.57)" fill="#cfe0f3"/>
              </g>
              <g id="Group_16996" data-name="Group 16996" transform="translate(0 9.576)">
                <rect id="Rectangle_10859" data-name="Rectangle 10859" width="10.66" height="2.369" fill="#cfe0f3"/>
                <rect id="Rectangle_10860" data-name="Rectangle 10860" width="18.502" height="2.369" transform="translate(12.57)" fill="#cfe0f3"/>
              </g>
              <rect id="Rectangle_10861" data-name="Rectangle 10861" width="41.134" height="2.369" transform="translate(0 14.364)" fill="#c0d2e2"/>
              <rect id="Rectangle_10862" data-name="Rectangle 10862" width="41.134" height="2.369" transform="translate(0 19.152)" fill="#cfe0f3"/>
              <rect id="Rectangle_10863" data-name="Rectangle 10863" width="19.514" height="2.369" fill="#c0d2e2"/>
            </g>
            <g id="Group_16998" data-name="Group 16998" transform="translate(0 28.547)">
              <rect id="Rectangle_10864" data-name="Rectangle 10864" width="20.124" height="11.471" fill="#cfe0f3"/>
              <rect id="Rectangle_10865" data-name="Rectangle 10865" width="20.124" height="11.471" transform="translate(25.866)" fill="#cfe0f3"/>
              <rect id="Rectangle_10866" data-name="Rectangle 10866" width="20.124" height="11.471" transform="translate(51.733)" fill="#cfe0f3"/>
            </g>
            <g id="Group_17000" data-name="Group 17000" transform="translate(5.541 29.827)">
              <path id="Path_21811" data-name="Path 21811" d="M613.475,759.842a4.456,4.456,0,1,1-4.456-4.455A4.455,4.455,0,0,1,613.475,759.842Z" transform="translate(-604.564 -755.387)" fill="#fff"/>
              <g id="Group_16999" data-name="Group 16999" transform="translate(1.9 2.482)">
                <path id="Path_21812" data-name="Path 21812" d="M614.534,769.378a.77.77,0,0,1-.592-.279l-1.963-2.373,1.185-.98,1.284,1.553,1.4-2.228,1.3.817-1.963,3.13a.769.769,0,0,1-.6.359Z" transform="translate(-611.978 -765.07)" fill="#a6d14a"/>
              </g>
            </g>
            <g id="Group_17019" data-name="Group 17019">
              <rect id="Rectangle_10867" data-name="Rectangle 10867" width="20.124" height="21.843" fill="#cfe0f3"/>
              <g id="Group_17018" data-name="Group 17018" transform="translate(3.796 2.07)">
                <g id="Group_17001" data-name="Group 17001" transform="translate(0 12.624)">
                  <path id="Path_21813" data-name="Path 21813" d="M603.687,696.344c-1.084,0-3.609.052-4.953,1.845-.94,1.255-1.027,3.671-.962,5.3H609.6c.066-1.632-.022-4.048-.962-5.3C607.3,696.4,604.772,696.345,603.687,696.344Z" transform="translate(-597.755 -696.344)" fill="#5587a2"/>
                  <path id="Path_21814" data-name="Path 21814" d="M617.621,696.46a12.8,12.8,0,0,0-3.445,0,1.417,1.417,0,0,0,.605,1.049,2.034,2.034,0,0,0,2.234,0A1.417,1.417,0,0,0,617.621,696.46Z" transform="translate(-609.968 -696.344)" fill="#fff"/>
                </g>
                <g id="Group_17002" data-name="Group 17002" transform="translate(2.521 16.102)">
                  <path id="Path_21815" data-name="Path 21815" d="M608.107,709.912A.1.1,0,0,0,608,710c-.018.129-.249,1.84-.407,3.587h.2c.162-1.781.4-3.529.4-3.56A.1.1,0,0,0,608.107,709.912Z" transform="translate(-607.591 -709.911)" fill="#9bc9dd"/>
                  <path id="Path_21816" data-name="Path 21816" d="M631.663,710a.1.1,0,0,0-.193.026c0,.031.241,1.779.4,3.56h.2C631.911,711.836,631.68,710.124,631.663,710Z" transform="translate(-625.349 -709.911)" fill="#9bc9dd"/>
                </g>
                <g id="Group_17013" data-name="Group 17013" transform="translate(0.55 1.661)">
                  <g id="Group_17003" data-name="Group 17003" transform="translate(4.088 7.896)">
                    <path id="Path_21817" data-name="Path 21817" d="M618.44,687.523c-.085,1.358-2.5,1.358-2.588,0v-3.145h2.588Z" transform="translate(-615.852 -684.378)" fill="#ffa783"/>
                    <path id="Path_21818" data-name="Path 21818" d="M615.852,687.423a4.621,4.621,0,0,0,2.588-1.045v-2h-2.588Z" transform="translate(-615.852 -684.378)" fill="#f5916f"/>
                  </g>
                  <g id="Group_17012" data-name="Group 17012">
                    <g id="Group_17004" data-name="Group 17004" transform="translate(0 4.365)">
                      <path id="Path_21819" data-name="Path 21819" d="M601.639,671.47a.869.869,0,1,1-.868-.869A.869.869,0,0,1,601.639,671.47Z" transform="translate(-599.902 -670.601)" fill="#f5916f"/>
                      <path id="Path_21820" data-name="Path 21820" d="M636.858,671.47a.869.869,0,1,1-.869-.869A.869.869,0,0,1,636.858,671.47Z" transform="translate(-626.095 -670.601)" fill="#f5916f"/>
                    </g>
                    <path id="Path_21821" data-name="Path 21821" d="M606.775,653.568a4.713,4.713,0,0,0-4.868,4.7,4.892,4.892,0,1,0,9.736,0A4.712,4.712,0,0,0,606.775,653.568Z" transform="translate(-601.393 -653.568)" fill="#ffa783"/>
                    <g id="Group_17005" data-name="Group 17005" transform="translate(3.1 4.938)">
                      <path id="Path_21822" data-name="Path 21822" d="M612.574,673.125a.289.289,0,1,1-.289-.289A.289.289,0,0,1,612.574,673.125Z" transform="translate(-611.997 -672.836)" fill="#1b2135"/>
                      <path id="Path_21823" data-name="Path 21823" d="M628.129,673.125a.289.289,0,1,1-.289-.289A.289.289,0,0,1,628.129,673.125Z" transform="translate(-623.565 -672.836)" fill="#1b2135"/>
                    </g>
                    <g id="Group_17006" data-name="Group 17006" transform="translate(4.957 4.61)">
                      <path id="Path_21824" data-name="Path 21824" d="M619.487,673.57a1.142,1.142,0,0,1-.242-.027l.029-.136a.722.722,0,0,0,.669-.139l-.372-1.684.136-.031.387,1.754-.021.026A.76.76,0,0,1,619.487,673.57Z" transform="translate(-619.245 -671.554)" fill="#f5916f"/>
                    </g>
                    <g id="Group_17007" data-name="Group 17007" transform="translate(2.206 5.673)">
                      <path id="Path_21825" data-name="Path 21825" d="M609.416,676.156a.452.452,0,1,1-.453-.453A.452.452,0,0,1,609.416,676.156Z" transform="translate(-608.511 -675.703)" fill="#f5916f"/>
                      <path id="Path_21826" data-name="Path 21826" d="M630.666,676.156a.452.452,0,1,1-.453-.453A.453.453,0,0,1,630.666,676.156Z" transform="translate(-624.315 -675.703)" fill="#f5916f"/>
                    </g>
                    <g id="Group_17010" data-name="Group 17010" transform="translate(2.667 4.027)">
                      <g id="Group_17008" data-name="Group 17008">
                        <path id="Path_21827" data-name="Path 21827" d="M610.378,669.449l1.106-.166a.139.139,0,1,1,.041.275l-.013,0-1.118.056a.084.084,0,0,1-.016-.166Z" transform="translate(-610.307 -669.281)" fill="#1b2135"/>
                      </g>
                      <g id="Group_17009" data-name="Group 17009" transform="translate(4.093)">
                        <path id="Path_21828" data-name="Path 21828" d="M626.348,669.449l1.106-.166a.139.139,0,0,1,.042.275l-.014,0-1.118.056a.083.083,0,0,1-.087-.079A.084.084,0,0,1,626.348,669.449Z" transform="translate(-626.277 -669.281)" fill="#1b2135"/>
                      </g>
                    </g>
                    <g id="Group_17011" data-name="Group 17011" transform="translate(4.535 7.898)">
                      <path id="Path_21829" data-name="Path 21829" d="M618.443,684.838h0a.9.9,0,0,1-.847-.4l.127-.057a.8.8,0,0,0,.72.315h0a.8.8,0,0,0,.721-.315l.127.057A.9.9,0,0,1,618.443,684.838Z" transform="translate(-617.596 -684.384)" fill="#f4704d"/>
                    </g>
                  </g>
                </g>
                <g id="Group_17017" data-name="Group 17017" transform="translate(0.863)">
                  <path id="Path_21830" data-name="Path 21830" d="M601.29,653.554c.52-.193.508-.441.672-1.538.267-1.789,2.768-2.01,6.757-1.025,3.18.784,1.925-3.5.98-3.854-.6-.223-2.158.341-3.3.733-1.245.428-.565-.574-1.474-.374C599.941,648.589,601.29,653.554,601.29,653.554Z" transform="translate(-601.124 -647.086)" fill="#1b2135"/>
                  <path id="Path_21831" data-name="Path 21831" d="M634.568,659.9a3.721,3.721,0,0,1,.737,3.183c-.232.065-.179-2.544-1.32-2.752C633.587,660.261,634.568,659.9,634.568,659.9Z" transform="translate(-625.492 -656.617)" fill="#1b2135"/>
                  <g id="Group_17014" data-name="Group 17014" transform="translate(8.407 0.512)">
                    <path id="Path_21832" data-name="Path 21832" d="M634.291,650.228a.1.1,0,0,1-.035-.007.091.091,0,0,1-.048-.118.989.989,0,0,0-.251-.861.09.09,0,0,1,.117-.137,1.156,1.156,0,0,1,.3,1.067A.089.089,0,0,1,634.291,650.228Z" transform="translate(-633.925 -649.084)" fill="#3a4460"/>
                  </g>
                  <g id="Group_17015" data-name="Group 17015" transform="translate(5.803 1.91)">
                    <path id="Path_21833" data-name="Path 21833" d="M624.518,655.843a3.779,3.779,0,0,1-.677-.06.09.09,0,1,1,.032-.177c1.144.21,2.539-.172,2.692-1a.091.091,0,0,1,.106-.072.09.09,0,0,1,.072.105C626.6,655.425,625.564,655.843,624.518,655.843Z" transform="translate(-623.767 -654.537)" fill="#3a4460"/>
                  </g>
                  <g id="Group_17016" data-name="Group 17016" transform="translate(8.175 1.8)">
                    <path id="Path_21834" data-name="Path 21834" d="M633.112,655.684a.09.09,0,0,1,0-.18.806.806,0,0,0,.624-.29,1.264,1.264,0,0,0,.259-1,.09.09,0,0,1,.179-.026,1.447,1.447,0,0,1-.3,1.146A.981.981,0,0,1,633.112,655.684Z" transform="translate(-633.022 -654.11)" fill="#3a4460"/>
                  </g>
                </g>
              </g>
            </g>
          </g>
        </g>
        <g id="Group_17219" data-name="Group 17219" transform="translate(-4.306 -3.67)">
          <g id="Group_17001-2" data-name="Group 17001" transform="translate(0 59.409)">
            <path id="Path_21813-2" data-name="Path 21813" d="M625.67,696.344c-5.1,0-16.985.242-23.309,8.684-4.421,5.9-4.835,17.277-4.526,24.955h55.672c.309-7.678-.105-19.052-4.526-24.955C642.656,696.586,630.776,696.347,625.67,696.344Z" transform="translate(-597.755 -696.344)" fill="#5587a2"/>
            <path id="Path_21814-2" data-name="Path 21814" d="M630.389,696.891a60.239,60.239,0,0,0-16.213,0,6.667,6.667,0,0,0,2.849,4.938,9.573,9.573,0,0,0,10.513,0A6.671,6.671,0,0,0,630.389,696.891Z" transform="translate(-594.371 -696.344)" fill="#fff"/>
          </g>
          <g id="Group_17002-2" data-name="Group 17002" transform="translate(11.863 75.773)">
            <path id="Path_21815-2" data-name="Path 21815" d="M610.02,709.916a.456.456,0,0,0-.515.392c-.084.6-1.174,8.659-1.914,16.879h.925c.761-8.382,1.875-16.607,1.9-16.755A.46.46,0,0,0,610.02,709.916Z" transform="translate(-607.591 -709.911)" fill="#9bc9dd"/>
            <path id="Path_21816-2" data-name="Path 21816" d="M632.382,710.307a.459.459,0,0,0-.91.125c.02.148,1.134,8.374,1.9,16.755h.926C633.552,718.967,632.463,710.913,632.382,710.307Z" transform="translate(-602.67 -709.911)" fill="#9bc9dd"/>
          </g>
          <g id="Group_17013-2" data-name="Group 17013" transform="translate(2.589 7.818)">
            <g id="Group_17003-2" data-name="Group 17003" transform="translate(19.237 37.16)">
              <path id="Path_21817-2" data-name="Path 21817" d="M628.031,699.178c-.4,6.39-11.778,6.39-12.179,0v-14.8h12.179Z" transform="translate(-615.852 -684.378)" fill="#ffa783"/>
              <path id="Path_21818-2" data-name="Path 21818" d="M615.852,698.705c6.842-1.057,10.371-3.155,12.179-4.918v-9.408H615.852Z" transform="translate(-615.852 -684.378)" fill="#f5916f"/>
            </g>
            <g id="Group_17012-2" data-name="Group 17012">
              <g id="Group_17004-2" data-name="Group 17004" transform="translate(0 20.543)">
                <path id="Path_21819-2" data-name="Path 21819" d="M608.078,674.69a4.088,4.088,0,1,1-4.086-4.089A4.088,4.088,0,0,1,608.078,674.69Z" transform="translate(-599.902 -670.601)" fill="#f5916f"/>
                <path id="Path_21820-2" data-name="Path 21820" d="M643.3,674.69a4.088,4.088,0,1,1-4.087-4.089A4.087,4.087,0,0,1,643.3,674.69Z" transform="translate(-592.644 -670.601)" fill="#f5916f"/>
              </g>
              <path id="Path_21821-2" data-name="Path 21821" d="M624.814,653.568c-12.655.027-22.907,9.33-22.907,22.118,0,16.661,13.034,25.294,22.907,25.327,9.877-.033,22.908-8.666,22.908-25.327C647.722,662.9,637.472,653.595,624.814,653.568Z" transform="translate(-599.489 -653.568)" fill="#ffa783"/>
              <g id="Group_17005-2" data-name="Group 17005" transform="translate(14.588 23.239)">
                <path id="Path_21822-2" data-name="Path 21822" d="M614.714,674.195a1.359,1.359,0,1,1-1.359-1.359A1.36,1.36,0,0,1,614.714,674.195Z" transform="translate(-611.997 -672.836)" fill="#1b2135"/>
                <path id="Path_21823-2" data-name="Path 21823" d="M630.269,674.195a1.359,1.359,0,1,1-1.359-1.359A1.359,1.359,0,0,1,630.269,674.195Z" transform="translate(-608.792 -672.836)" fill="#1b2135"/>
              </g>
              <g id="Group_17006-2" data-name="Group 17006" transform="translate(23.329 21.693)">
                <path id="Path_21824-2" data-name="Path 21824" d="M620.384,681.042a5.374,5.374,0,0,1-1.139-.125l.136-.639a3.4,3.4,0,0,0,3.149-.655l-1.75-7.925.638-.144,1.821,8.252-.1.122A3.577,3.577,0,0,1,620.384,681.042Z" transform="translate(-619.245 -671.554)" fill="#f5916f"/>
              </g>
              <g id="Group_17007-2" data-name="Group 17007" transform="translate(10.383 26.697)">
                <path id="Path_21825-2" data-name="Path 21825" d="M612.768,677.834a2.129,2.129,0,1,1-2.13-2.131A2.128,2.128,0,0,1,612.768,677.834Z" transform="translate(-608.511 -675.703)" fill="#f5916f"/>
                <path id="Path_21826-2" data-name="Path 21826" d="M634.02,677.834a2.129,2.129,0,1,1-2.131-2.131A2.129,2.129,0,0,1,634.02,677.834Z" transform="translate(-604.132 -675.703)" fill="#f5916f"/>
              </g>
              <g id="Group_17010-2" data-name="Group 17010" transform="translate(12.549 18.951)">
                <g id="Group_17008-2" data-name="Group 17008">
                  <path id="Path_21827-2" data-name="Path 21827" d="M610.641,670.071l5.207-.783a.654.654,0,1,1,.194,1.294.415.415,0,0,1-.063.007l-5.261.263a.393.393,0,0,1-.078-.782Z" transform="translate(-610.306 -669.281)" fill="#1b2135"/>
                </g>
                <g id="Group_17009-2" data-name="Group 17009" transform="translate(19.261)">
                  <path id="Path_21828-2" data-name="Path 21828" d="M626.611,670.071l5.207-.783a.655.655,0,0,1,.2,1.294.472.472,0,0,1-.066.007l-5.26.263a.392.392,0,0,1-.411-.373A.4.4,0,0,1,626.611,670.071Z" transform="translate(-626.277 -669.281)" fill="#1b2135"/>
                </g>
              </g>
              <g id="Group_17011-2" data-name="Group 17011" transform="translate(21.341 37.167)">
                <path id="Path_21829-2" data-name="Path 21829" d="M621.581,686.519h0c-1.912,0-3.475-.731-3.985-1.867l.6-.268c.462,1.022,2.034,1.482,3.389,1.482h0c1.355,0,2.929-.461,3.393-1.482l.6.268C625.057,685.788,623.491,686.519,621.581,686.519Z" transform="translate(-617.596 -684.384)" fill="#f4704d"/>
              </g>
            </g>
          </g>
          <g id="Group_17017-2" data-name="Group 17017" transform="translate(4.063)">
            <path id="Path_21830-2" data-name="Path 21830" d="M601.906,677.523c2.448-.909,2.392-2.075,3.163-7.238,1.255-8.419,13.027-9.458,31.8-4.825,14.964,3.689,9.058-16.478,4.612-18.136-2.817-1.049-10.157,1.606-15.516,3.451-5.858,2.015-2.661-2.7-6.938-1.762C595.56,654.157,601.906,677.523,601.906,677.523Z" transform="translate(-601.124 -647.086)" fill="#1b2135"/>
            <path id="Path_21831-2" data-name="Path 21831" d="M637.081,659.9c4.383,4.121,4.562,14.673,3.466,14.98s-.844-11.971-6.212-12.951C632.467,661.589,637.081,659.9,637.081,659.9Z" transform="translate(-594.371 -644.445)" fill="#1b2135"/>
            <g id="Group_17014-2" data-name="Group 17014" transform="translate(39.562 2.41)">
              <path id="Path_21832-2" data-name="Path 21832" d="M635.646,654.466a.456.456,0,0,1-.166-.032.428.428,0,0,1-.227-.555,4.657,4.657,0,0,0-1.18-4.05.423.423,0,0,1,.549-.644c1.212,1.035,1.966,3.711,1.411,5.022A.419.419,0,0,1,635.646,654.466Z" transform="translate(-633.925 -649.084)" fill="#3a4460"/>
            </g>
            <g id="Group_17015-2" data-name="Group 17015" transform="translate(27.31 8.987)">
              <path id="Path_21833-2" data-name="Path 21833" d="M627.3,660.683a17.77,17.77,0,0,1-3.187-.284.423.423,0,1,1,.152-.832c5.384.987,11.947-.808,12.669-4.683a.429.429,0,0,1,.5-.34.424.424,0,0,1,.339.495C637.086,658.717,632.223,660.683,627.3,660.683Z" transform="translate(-623.767 -654.537)" fill="#3a4460"/>
            </g>
            <g id="Group_17016-2" data-name="Group 17016" transform="translate(38.472 8.471)">
              <path id="Path_21834-2" data-name="Path 21834" d="M633.445,661.521a.424.424,0,0,1,0-.848,3.792,3.792,0,0,0,2.938-1.363,5.95,5.95,0,0,0,1.219-4.715.425.425,0,0,1,.841-.123,6.81,6.81,0,0,1-1.421,5.394A4.618,4.618,0,0,1,633.445,661.521Z" transform="translate(-633.022 -654.11)" fill="#3a4460"/>
            </g>
          </g>
        </g>
      </g>
      <line id="Line_344" data-name="Line 344" y2="15.378" transform="translate(5209.821 6036.318)" fill="none" stroke="#707070" stroke-width="0.5" stroke-dasharray="2 1"/>
      <line id="Line_345" data-name="Line 345" x1="83.039" transform="translate(5125.245 6051.695)" fill="none" stroke="#707070" stroke-width="0.5" stroke-dasharray="2 1"/>
      <line id="Line_346" data-name="Line 346" y1="15.121" transform="translate(5125.245 6036.318)" fill="none" stroke="#707070" stroke-width="0.5" stroke-dasharray="2 1"/>
    </g>
  </g>
</svg>
