<svg xmlns="http://www.w3.org/2000/svg" width="216.818" height="179" viewBox="0 0 216.818 179">
  <g id="Group_17208" data-name="Group 17208" transform="translate(-753.648 -216.069)">
    <g id="Group_17207" data-name="Group 17207" transform="translate(753.648 216.069)" opacity="0.42">
      <path id="Path_21942" data-name="Path 21942" d="M711.828,295.684c-1.749,1.994-7.953,8.75-10.036,10.328-14.166,10.726-66.7,36.5-136.848,12.022-6.157-3.271-17.674-6.181-21.287-11.821-2.6-4.063-6.281-6.7-9.329-9.875-1.321-1.375-2.408-2.72-3.843-4.2a39.155,39.155,0,0,1-3.5-3.7c-37.521-50.022,5.4-112.122,59.382-82.907,43.993,23.81,84.632,15.649,92.717,12.3a34.441,34.441,0,0,1,3.981-1.393c6.761-1.865,24.464-5.174,36.854,6.726,5.615,5.393,8.824,13.1,9.5,21.418a70.27,70.27,0,0,1-11.349,44.176C716.436,291.205,714.077,293.119,711.828,295.684Z" transform="translate(-512.808 -149.261)" fill="#dadada"/>
      <circle id="Ellipse_1738" data-name="Ellipse 1738" cx="26.069" cy="26.069" r="26.069" transform="translate(75.692 41.25) rotate(-52.296)" fill="#dadada"/>
    </g>
    <g id="Group_17198" data-name="Group 17198" transform="translate(768.156 288.45)">
      <g id="Group_17221" data-name="Group 17221" transform="translate(59.002 5.839)">
        <g id="Group_17035" data-name="Group 17035">
          <rect id="Rectangle_10868" data-name="Rectangle 10868" width="69.891" height="43.787" fill="#cfe0f3"/>
        </g>
        <g id="Group_17038" data-name="Group 17038" transform="translate(4.273 4.062)">
          <rect id="Rectangle_10870" data-name="Rectangle 10870" width="21.17" height="27.653" fill="none"/>
        </g>
        <g id="Group_17040" data-name="Group 17040" transform="translate(5.368 5.98)">
          <g id="Group_17039" data-name="Group 17039" transform="translate(0)">
            <rect id="Rectangle_10871" data-name="Rectangle 10871" width="59.202" height="2.89" fill="#f3f7f8"/>
          </g>
        </g>
        <g id="Group_17042" data-name="Group 17042" transform="translate(5.367 11.42)">
          <g id="Group_17041" data-name="Group 17041" transform="translate(0 0)">
            <rect id="Rectangle_10872" data-name="Rectangle 10872" width="59.558" height="2.89" transform="translate(0 0)" fill="#f3f7f8"/>
          </g>
        </g>
        <g id="Group_17043" data-name="Group 17043" transform="translate(5.367 17.893)">
          <rect id="Rectangle_10873" data-name="Rectangle 10873" width="59.558" height="2.89" transform="translate(0 0)" fill="#f3f7f8"/>
        </g>
        <g id="Group_17044" data-name="Group 17044" transform="translate(5.367 27.574)">
          <rect id="Rectangle_10874" data-name="Rectangle 10874" width="59.558" height="11.73" fill="#f3f7f8"/>
        </g>
      </g>
      <g id="Group_17191" data-name="Group 17191" transform="translate(0 0)">
        <path id="Path_21922" data-name="Path 21922" d="M253.539,407.37c2.483-2.781,7.335-1.994,10.8-3.173a84.109,84.109,0,0,0,9.636-3.6c3.433-1.663,6.487-3.916,9.946-5.542,2.867-1.349,4.049-3.276,7-4.442,4.455-1.756,6.674-2.662,11.513-3.342a31.406,31.406,0,0,0,6.561-1.627c2.063-1.135-1.436-4.4-2.462-5.027-3.029-1.847-6.733-1.6-10.19-1.8-3.646-.207-3.385,2.173-7.04,2.487-3.694.316-8.18-1.154-11.577-3.026-2.848-1.57-7.668-2.848-7.018-6.664q.58-3.409,1.162-6.819,1.476-8.645,2.948-17.289c.613-3.6,4.947-5.645,8.416-6.24,2.326-.4,4.208.21,6.446.428a13.822,13.822,0,0,0,6.719-1.22c1.728-.7,2.916-1.995.657-3.1q-2.2-1.075-4.4-2.153c-2.932-1.434-5.764-2.415-9.148-1.879q-4.991.791-9.979,1.578c-3.342.526-6.763.73-9.088,3.455-4.032,4.722-5.861,11.093-11.451,14.566-3.006,1.865-6.4,3.58-6.969,7.342q-.563,3.752-1.131,7.508c-.838,5.562-.739,13.188-4.315,17.956-3.544,4.731-15.27,14.692-15.27,14.692l16.421,17.35S252.656,408.276,253.539,407.37Z" transform="translate(-225.298 -333.198)" fill="#f7be89"/>
        <g id="Group_17190" data-name="Group 17190" transform="translate(68.487 2.636)">
          <path id="Path_21923" data-name="Path 21923" d="M309.129,388.01c-2.171.412-1.392,1.61-1.392,1.61l-.253,1.762c.735-.141,2.146-.546,3.025-.669a15.783,15.783,0,0,0,3.762-.984l-.345-1.572A14.31,14.31,0,0,0,309.129,388.01Z" transform="translate(-299.582 -339.688)" fill="#ffd7b6"/>
          <g id="Group_17189" data-name="Group 17189">
            <path id="Path_21924" data-name="Path 21924" d="M299.237,337.753c1.051,1.1,3.356,1.171,3.356,1.171l.575-.716a3.225,3.225,0,0,0-.918-.63q-1.582-.77-3.16-1.545A2.064,2.064,0,0,0,299.237,337.753Z" transform="translate(-298.982 -336.033)" fill="#ffd7b6"/>
          </g>
        </g>
        <path id="Path_21925" data-name="Path 21925" d="M258.209,354.379a132.129,132.129,0,0,0,5.9-12.338v0c-2.7,4.148-4.767,8.757-9.222,11.525-.851.525-1.728,1.041-2.567,1.592A12.55,12.55,0,0,1,258.209,354.379Z" transform="translate(-227.204 -333.821)" fill="#f4b078"/>
      </g>
      <g id="Group_17194" data-name="Group 17194" transform="translate(106.601 0)">
        <path id="Path_21926" data-name="Path 21926" d="M396.08,407.37c-2.484-2.781-7.334-1.994-10.8-3.173a84.185,84.185,0,0,1-9.637-3.6c-3.431-1.663-6.486-3.916-9.946-5.542-2.865-1.349-4.046-3.276-7-4.442-4.453-1.756-6.672-2.662-11.512-3.342a31.34,31.34,0,0,1-6.56-1.627c-2.066-1.135,1.434-4.4,2.459-5.027,3.03-1.847,6.735-1.6,10.192-1.8,3.645-.207,3.386,2.173,7.038,2.487,3.7.316,8.182-1.154,11.578-3.026,2.847-1.57,7.668-2.848,7.018-6.664q-.583-3.409-1.164-6.819-1.474-8.645-2.948-17.289c-.613-3.6-4.945-5.645-8.414-6.24-2.326-.4-4.209.21-6.449.428a13.821,13.821,0,0,1-6.718-1.22c-1.729-.7-2.916-1.995-.656-3.1q2.2-1.075,4.4-2.153c2.933-1.434,5.764-2.415,9.15-1.879q4.988.791,9.977,1.578c3.342.526,6.764.73,9.089,3.455,4.03,4.722,5.86,11.093,11.451,14.566,3,1.865,6.4,3.58,6.97,7.342q.563,3.752,1.13,7.508c.837,5.562.737,13.188,4.314,17.956,3.543,4.731,15.271,14.692,15.271,14.692l-16.42,17.35S396.964,408.276,396.08,407.37Z" transform="translate(-339.988 -333.198)" fill="#f7be89"/>
        <g id="Group_17193" data-name="Group 17193" transform="translate(1.156 2.636)">
          <path id="Path_21927" data-name="Path 21927" d="M346.374,388.01c2.171.412,1.392,1.61,1.392,1.61l.254,1.762c-.735-.141-2.145-.546-3.026-.669a15.827,15.827,0,0,1-3.762-.984l.345-1.572A14.321,14.321,0,0,1,346.374,388.01Z" transform="translate(-341.232 -339.688)" fill="#ffd7b6"/>
          <g id="Group_17192" data-name="Group 17192" transform="translate(10.504)">
            <path id="Path_21928" data-name="Path 21928" d="M356.464,337.753c-1.049,1.1-3.357,1.171-3.357,1.171l-.574-.716a3.173,3.173,0,0,1,.918-.63q1.58-.77,3.161-1.545A2.071,2.071,0,0,1,356.464,337.753Z" transform="translate(-352.533 -336.033)" fill="#ffd7b6"/>
          </g>
        </g>
        <path id="Path_21929" data-name="Path 21929" d="M396.913,354.379a132.4,132.4,0,0,1-5.9-12.338v0c2.7,4.148,4.765,8.757,9.221,11.525.85.525,1.729,1.041,2.565,1.592A12.55,12.55,0,0,0,396.913,354.379Z" transform="translate(-343.587 -333.821)" fill="#f4b078"/>
      </g>
    </g>
  </g>
</svg>
