<svg xmlns="http://www.w3.org/2000/svg" width="216.818" height="179" viewBox="0 0 216.818 179">
  <g id="Group_17209" data-name="Group 17209" transform="translate(-792.531 -247.88)">
    <g id="Group_17208" data-name="Group 17208" transform="translate(38.883 31.811)">
      <g id="Group_17207" data-name="Group 17207" transform="translate(753.648 216.069)" opacity="0.42">
        <path id="Path_21942" data-name="Path 21942" d="M711.828,295.684c-1.749,1.994-7.953,8.75-10.036,10.328-14.166,10.726-66.7,36.5-136.848,12.022-6.157-3.271-17.674-6.181-21.287-11.821-2.6-4.063-6.281-6.7-9.329-9.875-1.321-1.375-2.408-2.72-3.843-4.2a39.155,39.155,0,0,1-3.5-3.7c-37.521-50.022,5.4-112.122,59.382-82.907,43.993,23.81,84.632,15.649,92.717,12.3a34.441,34.441,0,0,1,3.981-1.393c6.761-1.865,24.464-5.174,36.854,6.726,5.615,5.393,8.824,13.1,9.5,21.418a70.27,70.27,0,0,1-11.349,44.176C716.436,291.205,714.077,293.119,711.828,295.684Z" transform="translate(-512.808 -149.261)" fill="#dadada"/>
        <circle id="Ellipse_1738" data-name="Ellipse 1738" cx="26.069" cy="26.069" r="26.069" transform="translate(75.692 41.25) rotate(-52.296)" fill="#dadada"/>
      </g>
      <g id="Group_17198" data-name="Group 17198" transform="translate(768.156 288.45)">
        <g id="Group_17220" data-name="Group 17220" transform="translate(61.297 6.024)">
          <g id="Group_17035" data-name="Group 17035">
            <rect id="Rectangle_10868" data-name="Rectangle 10868" width="69.301" height="43.417" fill="#cfe0f3"/>
          </g>
          <g id="Group_17037" data-name="Group 17037" transform="translate(4.237 4.028)">
            <g id="Group_17036" data-name="Group 17036">
              <rect id="Rectangle_10869" data-name="Rectangle 10869" width="20.991" height="27.419" fill="#f3f7f8"/>
            </g>
          </g>
          <g id="Group_17038" data-name="Group 17038" transform="translate(4.237 4.028)">
            <rect id="Rectangle_10870" data-name="Rectangle 10870" width="20.991" height="27.419" fill="none"/>
          </g>
          <g id="Group_17040" data-name="Group 17040" transform="translate(29.128 5.93)">
            <g id="Group_17039" data-name="Group 17039">
              <rect id="Rectangle_10871" data-name="Rectangle 10871" width="15.066" height="2.865" fill="#f3f7f8"/>
            </g>
          </g>
          <g id="Group_17042" data-name="Group 17042" transform="translate(29.128 11.324)">
            <g id="Group_17041" data-name="Group 17041">
              <rect id="Rectangle_10872" data-name="Rectangle 10872" width="20.182" height="2.865" fill="#f3f7f8"/>
            </g>
          </g>
          <g id="Group_17043" data-name="Group 17043" transform="translate(29.128 21.709)">
            <rect id="Rectangle_10873" data-name="Rectangle 10873" width="35.249" height="2.865" fill="#f3f7f8"/>
          </g>
          <g id="Group_17044" data-name="Group 17044" transform="translate(29.128 27.341)">
            <rect id="Rectangle_10874" data-name="Rectangle 10874" width="35.249" height="2.865" fill="#f3f7f8"/>
          </g>
          <g id="Group_17045" data-name="Group 17045" transform="translate(3.615 34.828)">
            <rect id="Rectangle_10875" data-name="Rectangle 10875" width="37.589" height="2.865" fill="#f3f7f8"/>
          </g>
          <g id="Group_17047" data-name="Group 17047" transform="translate(44.648 34.828)">
            <g id="Group_17046" data-name="Group 17046">
              <rect id="Rectangle_10876" data-name="Rectangle 10876" width="20.425" height="2.865" fill="#f3f7f8"/>
            </g>
          </g>
          <g id="Group_17048" data-name="Group 17048" transform="translate(57.225 7.12)">
            <path id="Path_21847" data-name="Path 21847" d="M410.12,684.667c0,1-1.3,1.813-2.893,1.813s-2.893-.812-2.893-1.813,1.3-1.813,2.893-1.813S410.12,683.666,410.12,684.667Z" transform="translate(-404.335 -682.854)" fill="#f3f7f8"/>
          </g>
          <g id="Group_17096" data-name="Group 17096" transform="translate(6.879 5.155)">
            <g id="Group_17053" data-name="Group 17053" transform="translate(0 16.713)">
              <g id="Group_17050" data-name="Group 17050">
                <g id="Group_17049" data-name="Group 17049">
                  <path id="Path_21848" data-name="Path 21848" d="M337.681,704.681c-1.436,0-4.779.068-6.556,2.443-1.244,1.661-1.361,4.861-1.274,7.021h15.662c.087-2.159-.029-5.36-1.274-7.021C342.46,704.749,339.118,704.683,337.681,704.681Z" transform="translate(-329.828 -704.681)" fill="#5587a2"/>
                </g>
              </g>
              <g id="Group_17052" data-name="Group 17052" transform="translate(5.572)">
                <g id="Group_17051" data-name="Group 17051">
                  <path id="Path_21849" data-name="Path 21849" d="M342.635,704.834a17.031,17.031,0,0,0-4.561,0,1.876,1.876,0,0,0,.8,1.39,2.689,2.689,0,0,0,2.958,0A1.879,1.879,0,0,0,342.635,704.834Z" transform="translate(-338.074 -704.681)" fill="#fff"/>
                </g>
              </g>
            </g>
            <g id="Group_17056" data-name="Group 17056" transform="translate(3.337 21.317)">
              <g id="Group_17054" data-name="Group 17054">
                <path id="Path_21850" data-name="Path 21850" d="M335.45,711.5a.129.129,0,0,0-.145.109c-.023.171-.33,2.436-.538,4.749h.261c.214-2.357.527-4.671.532-4.713A.129.129,0,0,0,335.45,711.5Z" transform="translate(-334.767 -711.494)" fill="#9bc9dd"/>
              </g>
              <g id="Group_17055" data-name="Group 17055" transform="translate(8.102)">
                <path id="Path_21851" data-name="Path 21851" d="M347.014,711.6a.129.129,0,0,0-.255.036c.005.042.318,2.356.532,4.713h.262C347.344,714.041,347.037,711.776,347.014,711.6Z" transform="translate(-346.757 -711.494)" fill="#9bc9dd"/>
              </g>
            </g>
            <g id="Group_17089" data-name="Group 17089" transform="translate(0.729 2.199)">
              <g id="Group_17061" data-name="Group 17061" transform="translate(5.411 10.455)">
                <g id="Group_17058" data-name="Group 17058">
                  <g id="Group_17057" data-name="Group 17057">
                    <path id="Path_21852" data-name="Path 21852" d="M342.342,702.835c-.113,1.8-3.314,1.8-3.427,0v-4.162h3.427Z" transform="translate(-338.915 -698.673)" fill="#ffa783"/>
                  </g>
                </g>
                <g id="Group_17060" data-name="Group 17060">
                  <g id="Group_17059" data-name="Group 17059">
                    <path id="Path_21853" data-name="Path 21853" d="M338.915,702.7a6.116,6.116,0,0,0,3.427-1.385v-2.646h-3.427Z" transform="translate(-338.915 -698.673)" fill="#f5916f"/>
                  </g>
                </g>
              </g>
              <g id="Group_17088" data-name="Group 17088">
                <g id="Group_17066" data-name="Group 17066" transform="translate(0 5.78)">
                  <g id="Group_17063" data-name="Group 17063">
                    <g id="Group_17062" data-name="Group 17062">
                      <path id="Path_21854" data-name="Path 21854" d="M333.206,692.906a1.15,1.15,0,1,1-1.15-1.151A1.148,1.148,0,0,1,333.206,692.906Z" transform="translate(-330.907 -691.755)" fill="#f5916f"/>
                    </g>
                  </g>
                  <g id="Group_17065" data-name="Group 17065" transform="translate(11.949)">
                    <g id="Group_17064" data-name="Group 17064">
                      <path id="Path_21855" data-name="Path 21855" d="M350.891,692.906a1.15,1.15,0,1,1-1.151-1.151A1.149,1.149,0,0,1,350.891,692.906Z" transform="translate(-348.591 -691.755)" fill="#f5916f"/>
                    </g>
                  </g>
                </g>
                <g id="Group_17068" data-name="Group 17068" transform="translate(0.68)">
                  <g id="Group_17067" data-name="Group 17067">
                    <path id="Path_21856" data-name="Path 21856" d="M338.357,683.2a6.239,6.239,0,0,0-6.444,6.222,6.477,6.477,0,1,0,12.889,0A6.239,6.239,0,0,0,338.357,683.2Z" transform="translate(-331.913 -683.201)" fill="#ffa783"/>
                  </g>
                </g>
                <g id="Group_17073" data-name="Group 17073" transform="translate(4.103 6.538)">
                  <g id="Group_17070" data-name="Group 17070">
                    <g id="Group_17069" data-name="Group 17069">
                      <path id="Path_21857" data-name="Path 21857" d="M337.744,693.259a.382.382,0,1,1-.382-.383A.382.382,0,0,1,337.744,693.259Z" transform="translate(-336.979 -692.876)" fill="#1b2135"/>
                    </g>
                  </g>
                  <g id="Group_17072" data-name="Group 17072" transform="translate(5.278)">
                    <g id="Group_17071" data-name="Group 17071">
                      <path id="Path_21858" data-name="Path 21858" d="M345.554,693.259a.382.382,0,1,1-.382-.383A.382.382,0,0,1,345.554,693.259Z" transform="translate(-344.79 -692.876)" fill="#1b2135"/>
                    </g>
                  </g>
                </g>
                <g id="Group_17075" data-name="Group 17075" transform="translate(6.563 6.102)">
                  <g id="Group_17074" data-name="Group 17074">
                    <path id="Path_21859" data-name="Path 21859" d="M340.939,694.9a1.518,1.518,0,0,1-.32-.035l.039-.18a.96.96,0,0,0,.886-.183l-.492-2.231.18-.04.512,2.322-.028.034A1,1,0,0,1,340.939,694.9Z" transform="translate(-340.619 -692.232)" fill="#f5916f"/>
                  </g>
                </g>
                <g id="Group_17080" data-name="Group 17080" transform="translate(2.92 7.51)">
                  <g id="Group_17077" data-name="Group 17077">
                    <g id="Group_17076" data-name="Group 17076">
                      <path id="Path_21860" data-name="Path 21860" d="M336.427,694.915a.6.6,0,1,1-.6-.6A.6.6,0,0,1,336.427,694.915Z" transform="translate(-335.229 -694.315)" fill="#f5916f"/>
                    </g>
                  </g>
                  <g id="Group_17079" data-name="Group 17079" transform="translate(7.21)">
                    <g id="Group_17078" data-name="Group 17078">
                      <path id="Path_21861" data-name="Path 21861" d="M347.1,694.915a.6.6,0,1,1-.6-.6A.6.6,0,0,1,347.1,694.915Z" transform="translate(-345.899 -694.315)" fill="#f5916f"/>
                    </g>
                  </g>
                </g>
                <g id="Group_17085" data-name="Group 17085" transform="translate(3.53 5.332)">
                  <g id="Group_17082" data-name="Group 17082">
                    <g id="Group_17081" data-name="Group 17081">
                      <path id="Path_21862" data-name="Path 21862" d="M336.224,691.314l1.465-.22a.185.185,0,0,1,.055.365h-.018l-1.48.073a.109.109,0,0,1-.115-.1A.114.114,0,0,1,336.224,691.314Z" transform="translate(-336.131 -691.092)" fill="#1b2135"/>
                    </g>
                  </g>
                  <g id="Group_17084" data-name="Group 17084" transform="translate(5.419)">
                    <g id="Group_17083" data-name="Group 17083">
                      <path id="Path_21863" data-name="Path 21863" d="M344.244,691.314l1.464-.22a.185.185,0,0,1,.055.365h-.018l-1.479.073a.109.109,0,0,1-.116-.1A.114.114,0,0,1,344.244,691.314Z" transform="translate(-344.15 -691.092)" fill="#1b2135"/>
                    </g>
                  </g>
                </g>
                <g id="Group_17087" data-name="Group 17087" transform="translate(6.002 10.456)">
                  <g id="Group_17086" data-name="Group 17086">
                    <path id="Path_21864" data-name="Path 21864" d="M340.912,699.276h0a1.19,1.19,0,0,1-1.122-.525l.168-.076c.13.288.573.418.953.418h0c.382,0,.824-.13.954-.418l.168.076A1.191,1.191,0,0,1,340.912,699.276Z" transform="translate(-339.79 -698.675)" fill="#f4704d"/>
                  </g>
                </g>
              </g>
            </g>
            <g id="Group_17095" data-name="Group 17095" transform="translate(1.143)">
              <g id="Group_17090" data-name="Group 17090">
                <path id="Path_21865" data-name="Path 21865" d="M331.739,688.509c.689-.255.672-.583.889-2.036.354-2.368,3.665-2.66,8.946-1.358,4.21,1.039,2.548-4.635,1.3-5.1-.793-.3-2.858.452-4.365.97-1.647.568-.749-.758-1.952-.495C329.954,681.936,331.739,688.509,331.739,688.509Z" transform="translate(-331.519 -679.947)" fill="#1b2135"/>
              </g>
              <g id="Group_17091" data-name="Group 17091" transform="translate(11.118 4.348)">
                <path id="Path_21866" data-name="Path 21866" d="M348.871,686.382c1.233,1.159,1.283,4.128.976,4.214s-.239-3.367-1.749-3.644C347.573,686.856,348.871,686.382,348.871,686.382Z" transform="translate(-347.973 -686.382)" fill="#1b2135"/>
              </g>
              <g id="Group_17092" data-name="Group 17092" transform="translate(11.138 0.687)">
                <path id="Path_21867" data-name="Path 21867" d="M348.478,682.46a.111.111,0,0,1-.1-.153,1.323,1.323,0,0,0-.334-1.149.11.11,0,1,1,.143-.167,1.523,1.523,0,0,1,.4,1.4A.111.111,0,0,1,348.478,682.46Z" transform="translate(-348.003 -680.964)" fill="#3a4460"/>
              </g>
              <g id="Group_17093" data-name="Group 17093" transform="translate(7.692 2.537)">
                <path id="Path_21868" data-name="Path 21868" d="M343.889,685.412a4.991,4.991,0,0,1-.9-.08.109.109,0,0,1-.089-.128.11.11,0,0,1,.129-.089c1.518.278,3.37-.228,3.575-1.325a.112.112,0,0,1,.129-.089.111.111,0,0,1,.088.129C346.633,684.862,345.27,685.412,343.889,685.412Z" transform="translate(-342.902 -683.701)" fill="#3a4460"/>
              </g>
              <g id="Group_17094" data-name="Group 17094" transform="translate(10.831 2.392)">
                <path id="Path_21869" data-name="Path 21869" d="M347.66,685.553a.11.11,0,1,1,0-.221,1.073,1.073,0,0,0,.833-.387,1.683,1.683,0,0,0,.346-1.332.11.11,0,0,1,.093-.126.111.111,0,0,1,.126.093,1.9,1.9,0,0,1-.4,1.51A1.287,1.287,0,0,1,347.66,685.553Z" transform="translate(-347.549 -683.486)" fill="#3a4460"/>
              </g>
            </g>
          </g>
        </g>
        <g id="Group_17191" data-name="Group 17191" transform="translate(0 0)">
          <path id="Path_21922" data-name="Path 21922" d="M253.539,407.37c2.483-2.781,7.335-1.994,10.8-3.173a84.109,84.109,0,0,0,9.636-3.6c3.433-1.663,6.487-3.916,9.946-5.542,2.867-1.349,4.049-3.276,7-4.442,4.455-1.756,6.674-2.662,11.513-3.342a31.406,31.406,0,0,0,6.561-1.627c2.063-1.135-1.436-4.4-2.462-5.027-3.029-1.847-6.733-1.6-10.19-1.8-3.646-.207-3.385,2.173-7.04,2.487-3.694.316-8.18-1.154-11.577-3.026-2.848-1.57-7.668-2.848-7.018-6.664q.58-3.409,1.162-6.819,1.476-8.645,2.948-17.289c.613-3.6,4.947-5.645,8.416-6.24,2.326-.4,4.208.21,6.446.428a13.822,13.822,0,0,0,6.719-1.22c1.728-.7,2.916-1.995.657-3.1q-2.2-1.075-4.4-2.153c-2.932-1.434-5.764-2.415-9.148-1.879q-4.991.791-9.979,1.578c-3.342.526-6.763.73-9.088,3.455-4.032,4.722-5.861,11.093-11.451,14.566-3.006,1.865-6.4,3.58-6.969,7.342q-.563,3.752-1.131,7.508c-.838,5.562-.739,13.188-4.315,17.956-3.544,4.731-15.27,14.692-15.27,14.692l16.421,17.35S252.656,408.276,253.539,407.37Z" transform="translate(-225.298 -333.198)" fill="#f7be89"/>
          <g id="Group_17190" data-name="Group 17190" transform="translate(68.487 2.636)">
            <path id="Path_21923" data-name="Path 21923" d="M309.129,388.01c-2.171.412-1.392,1.61-1.392,1.61l-.253,1.762c.735-.141,2.146-.546,3.025-.669a15.783,15.783,0,0,0,3.762-.984l-.345-1.572A14.31,14.31,0,0,0,309.129,388.01Z" transform="translate(-299.582 -339.688)" fill="#ffd7b6"/>
            <g id="Group_17189" data-name="Group 17189">
              <path id="Path_21924" data-name="Path 21924" d="M299.237,337.753c1.051,1.1,3.356,1.171,3.356,1.171l.575-.716a3.225,3.225,0,0,0-.918-.63q-1.582-.77-3.16-1.545A2.064,2.064,0,0,0,299.237,337.753Z" transform="translate(-298.982 -336.033)" fill="#ffd7b6"/>
            </g>
          </g>
          <path id="Path_21925" data-name="Path 21925" d="M258.209,354.379a132.129,132.129,0,0,0,5.9-12.338v0c-2.7,4.148-4.767,8.757-9.222,11.525-.851.525-1.728,1.041-2.567,1.592A12.55,12.55,0,0,1,258.209,354.379Z" transform="translate(-227.204 -333.821)" fill="#f4b078"/>
        </g>
        <g id="Group_17194" data-name="Group 17194" transform="translate(106.601 0)">
          <path id="Path_21926" data-name="Path 21926" d="M396.08,407.37c-2.484-2.781-7.334-1.994-10.8-3.173a84.185,84.185,0,0,1-9.637-3.6c-3.431-1.663-6.486-3.916-9.946-5.542-2.865-1.349-4.046-3.276-7-4.442-4.453-1.756-6.672-2.662-11.512-3.342a31.34,31.34,0,0,1-6.56-1.627c-2.066-1.135,1.434-4.4,2.459-5.027,3.03-1.847,6.735-1.6,10.192-1.8,3.645-.207,3.386,2.173,7.038,2.487,3.7.316,8.182-1.154,11.578-3.026,2.847-1.57,7.668-2.848,7.018-6.664q-.583-3.409-1.164-6.819-1.474-8.645-2.948-17.289c-.613-3.6-4.945-5.645-8.414-6.24-2.326-.4-4.209.21-6.449.428a13.821,13.821,0,0,1-6.718-1.22c-1.729-.7-2.916-1.995-.656-3.1q2.2-1.075,4.4-2.153c2.933-1.434,5.764-2.415,9.15-1.879q4.988.791,9.977,1.578c3.342.526,6.764.73,9.089,3.455,4.03,4.722,5.86,11.093,11.451,14.566,3,1.865,6.4,3.58,6.97,7.342q.563,3.752,1.13,7.508c.837,5.562.737,13.188,4.314,17.956,3.543,4.731,15.271,14.692,15.271,14.692l-16.42,17.35S396.964,408.276,396.08,407.37Z" transform="translate(-339.988 -333.198)" fill="#f7be89"/>
          <g id="Group_17193" data-name="Group 17193" transform="translate(1.156 2.636)">
            <path id="Path_21927" data-name="Path 21927" d="M346.374,388.01c2.171.412,1.392,1.61,1.392,1.61l.254,1.762c-.735-.141-2.145-.546-3.026-.669a15.827,15.827,0,0,1-3.762-.984l.345-1.572A14.321,14.321,0,0,1,346.374,388.01Z" transform="translate(-341.232 -339.688)" fill="#ffd7b6"/>
            <g id="Group_17192" data-name="Group 17192" transform="translate(10.504)">
              <path id="Path_21928" data-name="Path 21928" d="M356.464,337.753c-1.049,1.1-3.357,1.171-3.357,1.171l-.574-.716a3.173,3.173,0,0,1,.918-.63q1.58-.77,3.161-1.545A2.071,2.071,0,0,1,356.464,337.753Z" transform="translate(-352.533 -336.033)" fill="#ffd7b6"/>
            </g>
          </g>
          <path id="Path_21929" data-name="Path 21929" d="M396.913,354.379a132.4,132.4,0,0,1-5.9-12.338v0c2.7,4.148,4.765,8.757,9.221,11.525.85.525,1.729,1.041,2.565,1.592A12.55,12.55,0,0,0,396.913,354.379Z" transform="translate(-343.587 -333.821)" fill="#f4b078"/>
        </g>
      </g>
    </g>
  </g>
</svg>
