<svg xmlns="http://www.w3.org/2000/svg" width="198.848" height="174.516" viewBox="0 0 198.848 174.516">
  <g id="Group_17208" data-name="Group 17208" transform="translate(-769.841 -222.466)">
    <g id="Group_17214" data-name="Group 17214" transform="translate(769.841 193.438)">
      <g id="Group_17214-2" data-name="Group 17214" transform="translate(0 0)">
        <path id="Path_21943" data-name="Path 21943" d="M522.958,287.2a35.221,35.221,0,0,0,5.214,4.836c5.736,4.343,21.519,22.278,43,29.894,8.908,3.159,25.358-.184,36.168,0,7.453.127,14.132.634,21.283,0,10.936-.968,22.309-4.2,35.888-11.413,80.7-42.866,31.086-137.174-27.4-105.52-39.675,21.473-76.325,14.113-83.617,11.1a31.06,31.06,0,0,0-3.591-1.256c-6.1-1.682-22.063-4.666-33.237,6.066-5.063,4.864-7.958,11.815-8.564,19.316C507.232,251.023,508.259,270.439,522.958,287.2Z" transform="translate(-507.879 -119.748)" fill="#efefef"/>
        <ellipse id="Ellipse_1739" data-name="Ellipse 1739" cx="24.821" cy="24.821" rx="24.821" ry="24.821" transform="translate(74.582 98.664) rotate(-127.704)" fill="#efefef"/>
      </g>
    </g>
    <g id="Group_17122" data-name="Group 17122" transform="translate(719.628 -299.365)">
      <g id="Group_17034" data-name="Group 17034" transform="translate(203.429 602.052)">
        <g id="Group_17021" data-name="Group 17021" transform="translate(0 0)">
          <path id="Path_21835" data-name="Path 21835" d="M356.817,667.589a2.185,2.185,0,0,1-2.185,2.185h0a2.185,2.185,0,0,1-2.185-2.185v-.027a2.673,2.673,0,0,1,4.37,0Z" transform="translate(-352.447 -666.429)" fill="#ffa783"/>
        </g>
        <g id="Group_17022" data-name="Group 17022" transform="translate(5.077 0)">
          <path id="Path_21836" data-name="Path 21836" d="M370.131,667.589a2.185,2.185,0,0,1-2.185,2.185h0a2.185,2.185,0,0,1-2.185-2.185v-.027a2.673,2.673,0,0,1,4.37,0Z" transform="translate(-365.761 -666.429)" fill="#ffa783"/>
        </g>
        <g id="Group_17023" data-name="Group 17023" transform="translate(10.154 0)">
          <path id="Path_21837" data-name="Path 21837" d="M383.444,667.589a2.185,2.185,0,0,1-2.185,2.185h0a2.185,2.185,0,0,1-2.185-2.185v-.027a2.673,2.673,0,0,1,4.37,0Z" transform="translate(-379.074 -666.429)" fill="#ffa783"/>
        </g>
        <g id="Group_17024" data-name="Group 17024" transform="translate(15.231 0)">
          <path id="Path_21838" data-name="Path 21838" d="M396.759,667.589a2.186,2.186,0,0,1-2.186,2.185h0a2.185,2.185,0,0,1-2.185-2.185v-.027a2.673,2.673,0,0,1,4.37,0Z" transform="translate(-392.389 -666.429)" fill="#ffa783"/>
        </g>
        <g id="Group_17029" data-name="Group 17029" transform="translate(0.406 0.002)">
          <g id="Group_17025" data-name="Group 17025" transform="translate(10.154)">
            <path id="Path_21839" data-name="Path 21839" d="M380.138,667.049a2.182,2.182,0,0,0,3.559,0A2.88,2.88,0,0,0,380.138,667.049Z" transform="translate(-380.138 -666.433)" fill="#f4cec6"/>
          </g>
          <g id="Group_17026" data-name="Group 17026" transform="translate(15.231 0)">
            <path id="Path_21840" data-name="Path 21840" d="M393.452,667.049a2.182,2.182,0,0,0,3.559,0A2.879,2.879,0,0,0,393.452,667.049Z" transform="translate(-393.452 -666.433)" fill="#f4cec6"/>
          </g>
          <g id="Group_17027" data-name="Group 17027" transform="translate(5.077)">
            <path id="Path_21841" data-name="Path 21841" d="M366.825,667.049a2.181,2.181,0,0,0,3.559,0A2.879,2.879,0,0,0,366.825,667.049Z" transform="translate(-366.825 -666.433)" fill="#f4cec6"/>
          </g>
          <g id="Group_17028" data-name="Group 17028">
            <path id="Path_21842" data-name="Path 21842" d="M353.511,667.049a2.181,2.181,0,0,0,3.559,0A2.879,2.879,0,0,0,353.511,667.049Z" transform="translate(-353.511 -666.433)" fill="#f4cec6"/>
          </g>
        </g>
        <g id="Group_17030" data-name="Group 17030" transform="translate(0.363 0.362)">
          <path id="Path_21843" data-name="Path 21843" d="M355.22,670a1.826,1.826,0,0,1-1.822-1.758,2.356,2.356,0,0,1,3.644,0A1.83,1.83,0,0,1,355.22,670Z" transform="translate(-353.398 -667.378)" fill="#ffa783"/>
        </g>
        <g id="Group_17031" data-name="Group 17031" transform="translate(5.44 0.362)">
          <path id="Path_21844" data-name="Path 21844" d="M368.534,670a1.826,1.826,0,0,1-1.822-1.758,2.356,2.356,0,0,1,3.644,0A1.83,1.83,0,0,1,368.534,670Z" transform="translate(-366.712 -667.378)" fill="#ffa783"/>
        </g>
        <g id="Group_17032" data-name="Group 17032" transform="translate(10.516 0.362)">
          <path id="Path_21845" data-name="Path 21845" d="M381.848,670a1.826,1.826,0,0,1-1.823-1.758,2.356,2.356,0,0,1,3.644,0A1.829,1.829,0,0,1,381.848,670Z" transform="translate(-380.025 -667.378)" fill="#ffa783"/>
        </g>
        <g id="Group_17033" data-name="Group 17033" transform="translate(15.593 0.362)">
          <path id="Path_21846" data-name="Path 21846" d="M395.161,670a1.826,1.826,0,0,1-1.822-1.758,2.356,2.356,0,0,1,3.644,0A1.829,1.829,0,0,1,395.161,670Z" transform="translate(-393.339 -667.378)" fill="#ffa783"/>
        </g>
      </g>
      <g id="Group_17097" data-name="Group 17097" transform="translate(190.921 604.297)">
        <g id="Group_17035" data-name="Group 17035">
          <rect id="Rectangle_10868" data-name="Rectangle 10868" width="39.109" height="24.502" fill="#cfe0f3"/>
        </g>
        <g id="Group_17037" data-name="Group 17037" transform="translate(2.391 2.273)">
          <g id="Group_17036" data-name="Group 17036">
            <rect id="Rectangle_10869" data-name="Rectangle 10869" width="11.846" height="15.474" fill="#f3f7f8"/>
          </g>
        </g>
        <g id="Group_17038" data-name="Group 17038" transform="translate(2.391 2.273)">
          <rect id="Rectangle_10870" data-name="Rectangle 10870" width="11.846" height="15.474" fill="none"/>
        </g>
        <g id="Group_17040" data-name="Group 17040" transform="translate(16.438 3.346)">
          <g id="Group_17039" data-name="Group 17039">
            <rect id="Rectangle_10871" data-name="Rectangle 10871" width="8.503" height="1.617" fill="#f3f7f8"/>
          </g>
        </g>
        <g id="Group_17042" data-name="Group 17042" transform="translate(16.438 6.391)">
          <g id="Group_17041" data-name="Group 17041">
            <rect id="Rectangle_10872" data-name="Rectangle 10872" width="11.39" height="1.617" fill="#f3f7f8"/>
          </g>
        </g>
        <g id="Group_17043" data-name="Group 17043" transform="translate(16.438 12.251)">
          <rect id="Rectangle_10873" data-name="Rectangle 10873" width="19.892" height="1.617" fill="#f3f7f8"/>
        </g>
        <g id="Group_17044" data-name="Group 17044" transform="translate(16.438 15.43)">
          <rect id="Rectangle_10874" data-name="Rectangle 10874" width="19.892" height="1.617" fill="#f3f7f8"/>
        </g>
        <g id="Group_17045" data-name="Group 17045" transform="translate(2.04 19.655)">
          <rect id="Rectangle_10875" data-name="Rectangle 10875" width="21.213" height="1.617" fill="#f3f7f8"/>
        </g>
        <g id="Group_17047" data-name="Group 17047" transform="translate(25.197 19.655)">
          <g id="Group_17046" data-name="Group 17046">
            <rect id="Rectangle_10876" data-name="Rectangle 10876" width="11.527" height="1.617" fill="#f3f7f8"/>
          </g>
        </g>
        <g id="Group_17048" data-name="Group 17048" transform="translate(32.294 4.018)">
          <path id="Path_21847" data-name="Path 21847" d="M407.6,683.877c0,.565-.731,1.023-1.633,1.023s-1.632-.458-1.632-1.023.731-1.023,1.632-1.023S407.6,683.312,407.6,683.877Z" transform="translate(-404.335 -682.854)" fill="#f3f7f8"/>
        </g>
        <g id="Group_17096" data-name="Group 17096" transform="translate(3.882 2.909)">
          <g id="Group_17053" data-name="Group 17053" transform="translate(0 9.432)">
            <g id="Group_17050" data-name="Group 17050">
              <g id="Group_17049" data-name="Group 17049">
                <path id="Path_21848" data-name="Path 21848" d="M334.26,704.681c-.811,0-2.7.038-3.7,1.378-.7.937-.768,2.743-.719,3.962h8.839c.049-1.219-.016-3.025-.719-3.962C336.957,704.719,335.071,704.682,334.26,704.681Z" transform="translate(-329.828 -704.681)" fill="#5587a2"/>
              </g>
            </g>
            <g id="Group_17052" data-name="Group 17052" transform="translate(3.144)">
              <g id="Group_17051" data-name="Group 17051">
                <path id="Path_21849" data-name="Path 21849" d="M340.648,704.768a9.612,9.612,0,0,0-2.574,0,1.058,1.058,0,0,0,.452.784,1.518,1.518,0,0,0,1.669,0A1.061,1.061,0,0,0,340.648,704.768Z" transform="translate(-338.074 -704.681)" fill="#fff"/>
              </g>
            </g>
          </g>
          <g id="Group_17056" data-name="Group 17056" transform="translate(1.883 12.03)">
            <g id="Group_17054" data-name="Group 17054">
              <path id="Path_21850" data-name="Path 21850" d="M335.152,711.495a.073.073,0,0,0-.082.062c-.013.1-.186,1.375-.3,2.68h.147c.121-1.33.3-2.636.3-2.66A.073.073,0,0,0,335.152,711.495Z" transform="translate(-334.767 -711.494)" fill="#9bc9dd"/>
            </g>
            <g id="Group_17055" data-name="Group 17055" transform="translate(4.572)">
              <path id="Path_21851" data-name="Path 21851" d="M346.9,711.557a.073.073,0,0,0-.144.02c0,.024.18,1.33.3,2.66h.148C347.088,712.931,346.915,711.653,346.9,711.557Z" transform="translate(-346.757 -711.494)" fill="#9bc9dd"/>
            </g>
          </g>
          <g id="Group_17089" data-name="Group 17089" transform="translate(0.411 1.241)">
            <g id="Group_17061" data-name="Group 17061" transform="translate(3.054 5.9)">
              <g id="Group_17058" data-name="Group 17058">
                <g id="Group_17057" data-name="Group 17057">
                  <path id="Path_21852" data-name="Path 21852" d="M340.849,701.022c-.064,1.015-1.87,1.015-1.934,0v-2.349h1.934Z" transform="translate(-338.915 -698.673)" fill="#ffa783"/>
                </g>
              </g>
              <g id="Group_17060" data-name="Group 17060">
                <g id="Group_17059" data-name="Group 17059">
                  <path id="Path_21853" data-name="Path 21853" d="M338.915,700.948a3.452,3.452,0,0,0,1.934-.781v-1.493h-1.934Z" transform="translate(-338.915 -698.673)" fill="#f5916f"/>
                </g>
              </g>
            </g>
            <g id="Group_17088" data-name="Group 17088">
              <g id="Group_17066" data-name="Group 17066" transform="translate(0 3.262)">
                <g id="Group_17063" data-name="Group 17063">
                  <g id="Group_17062" data-name="Group 17062">
                    <path id="Path_21854" data-name="Path 21854" d="M332.2,692.4a.649.649,0,1,1-.649-.649A.648.648,0,0,1,332.2,692.4Z" transform="translate(-330.907 -691.755)" fill="#f5916f"/>
                  </g>
                </g>
                <g id="Group_17065" data-name="Group 17065" transform="translate(6.743)">
                  <g id="Group_17064" data-name="Group 17064">
                    <path id="Path_21855" data-name="Path 21855" d="M349.889,692.4a.649.649,0,1,1-.649-.649A.648.648,0,0,1,349.889,692.4Z" transform="translate(-348.591 -691.755)" fill="#f5916f"/>
                  </g>
                </g>
              </g>
              <g id="Group_17068" data-name="Group 17068" transform="translate(0.384)">
                <g id="Group_17067" data-name="Group 17067">
                  <path id="Path_21856" data-name="Path 21856" d="M335.55,683.2a3.521,3.521,0,0,0-3.637,3.511,3.655,3.655,0,1,0,7.274,0A3.521,3.521,0,0,0,335.55,683.2Z" transform="translate(-331.913 -683.201)" fill="#ffa783"/>
                </g>
              </g>
              <g id="Group_17073" data-name="Group 17073" transform="translate(2.315 3.689)">
                <g id="Group_17070" data-name="Group 17070">
                  <g id="Group_17069" data-name="Group 17069">
                    <path id="Path_21857" data-name="Path 21857" d="M337.411,693.092a.216.216,0,1,1-.216-.216A.216.216,0,0,1,337.411,693.092Z" transform="translate(-336.979 -692.876)" fill="#1b2135"/>
                  </g>
                </g>
                <g id="Group_17072" data-name="Group 17072" transform="translate(2.979)">
                  <g id="Group_17071" data-name="Group 17071">
                    <path id="Path_21858" data-name="Path 21858" d="M345.221,693.092a.216.216,0,1,1-.216-.216A.215.215,0,0,1,345.221,693.092Z" transform="translate(-344.79 -692.876)" fill="#1b2135"/>
                  </g>
                </g>
              </g>
              <g id="Group_17075" data-name="Group 17075" transform="translate(3.703 3.444)">
                <g id="Group_17074" data-name="Group 17074">
                  <path id="Path_21859" data-name="Path 21859" d="M340.8,693.739a.856.856,0,0,1-.181-.02l.022-.1a.542.542,0,0,0,.5-.1l-.278-1.259.1-.023.289,1.31-.016.019A.565.565,0,0,1,340.8,693.739Z" transform="translate(-340.619 -692.232)" fill="#f5916f"/>
                </g>
              </g>
              <g id="Group_17080" data-name="Group 17080" transform="translate(1.648 4.238)">
                <g id="Group_17077" data-name="Group 17077">
                  <g id="Group_17076" data-name="Group 17076">
                    <path id="Path_21860" data-name="Path 21860" d="M335.905,694.654a.338.338,0,1,1-.338-.339A.338.338,0,0,1,335.905,694.654Z" transform="translate(-335.229 -694.315)" fill="#f5916f"/>
                  </g>
                </g>
                <g id="Group_17079" data-name="Group 17079" transform="translate(4.069)">
                  <g id="Group_17078" data-name="Group 17078">
                    <path id="Path_21861" data-name="Path 21861" d="M346.575,694.654a.338.338,0,1,1-.338-.339A.338.338,0,0,1,346.575,694.654Z" transform="translate(-345.899 -694.315)" fill="#f5916f"/>
                  </g>
                </g>
              </g>
              <g id="Group_17085" data-name="Group 17085" transform="translate(1.992 3.009)">
                <g id="Group_17082" data-name="Group 17082">
                  <g id="Group_17081" data-name="Group 17081">
                    <path id="Path_21862" data-name="Path 21862" d="M336.184,691.217l.827-.124a.1.1,0,0,1,.031.206h-.01l-.835.041a.061.061,0,0,1-.065-.059A.064.064,0,0,1,336.184,691.217Z" transform="translate(-336.131 -691.092)" fill="#1b2135"/>
                  </g>
                </g>
                <g id="Group_17084" data-name="Group 17084" transform="translate(3.058)">
                  <g id="Group_17083" data-name="Group 17083">
                    <path id="Path_21863" data-name="Path 21863" d="M344.2,691.217l.826-.124a.1.1,0,1,1,.031.206h-.01l-.835.041a.062.062,0,0,1-.066-.059A.064.064,0,0,1,344.2,691.217Z" transform="translate(-344.15 -691.092)" fill="#1b2135"/>
                  </g>
                </g>
              </g>
              <g id="Group_17087" data-name="Group 17087" transform="translate(3.387 5.901)">
                <g id="Group_17086" data-name="Group 17086">
                  <path id="Path_21864" data-name="Path 21864" d="M340.423,699.014h0a.671.671,0,0,1-.633-.3l.095-.043c.073.162.323.236.538.236h0c.215,0,.465-.073.538-.236l.095.043A.672.672,0,0,1,340.423,699.014Z" transform="translate(-339.79 -698.675)" fill="#f4704d"/>
                </g>
              </g>
            </g>
          </g>
          <g id="Group_17095" data-name="Group 17095" transform="translate(0.645)">
            <g id="Group_17090" data-name="Group 17090">
              <path id="Path_21865" data-name="Path 21865" d="M331.644,684.779c.389-.144.379-.329.5-1.149.2-1.336,2.068-1.5,5.048-.766,2.376.586,1.438-2.615.732-2.879a5.829,5.829,0,0,0-2.463.547c-.93.32-.423-.428-1.1-.279C330.636,681.069,331.644,684.779,331.644,684.779Z" transform="translate(-331.519 -679.947)" fill="#1b2135"/>
            </g>
            <g id="Group_17091" data-name="Group 17091" transform="translate(6.274 2.454)">
              <path id="Path_21866" data-name="Path 21866" d="M348.48,686.382a2.783,2.783,0,0,1,.551,2.378c-.174.049-.135-1.9-.987-2.056C347.747,686.65,348.48,686.382,348.48,686.382Z" transform="translate(-347.973 -686.382)" fill="#1b2135"/>
            </g>
            <g id="Group_17092" data-name="Group 17092" transform="translate(6.286 0.388)">
              <path id="Path_21867" data-name="Path 21867" d="M348.271,681.808a.062.062,0,0,1-.057-.087.746.746,0,0,0-.189-.648.062.062,0,1,1,.081-.094.86.86,0,0,1,.223.791A.063.063,0,0,1,348.271,681.808Z" transform="translate(-348.003 -680.964)" fill="#3a4460"/>
            </g>
            <g id="Group_17093" data-name="Group 17093" transform="translate(4.341 1.432)">
              <path id="Path_21868" data-name="Path 21868" d="M343.459,684.667a2.821,2.821,0,0,1-.506-.045.061.061,0,0,1-.05-.072.062.062,0,0,1,.073-.05c.857.157,1.9-.129,2.018-.748a.063.063,0,0,1,.073-.05.062.062,0,0,1,.05.073C345.008,684.356,344.238,684.667,343.459,684.667Z" transform="translate(-342.902 -683.701)" fill="#3a4460"/>
            </g>
            <g id="Group_17094" data-name="Group 17094" transform="translate(6.113 1.35)">
              <path id="Path_21869" data-name="Path 21869" d="M347.612,684.653a.062.062,0,1,1,0-.125.605.605,0,0,0,.47-.218.95.95,0,0,0,.2-.752.062.062,0,1,1,.123-.018,1.075,1.075,0,0,1-.224.852A.726.726,0,0,1,347.612,684.653Z" transform="translate(-347.549 -683.486)" fill="#3a4460"/>
            </g>
          </g>
        </g>
      </g>
      <g id="Group_17105" data-name="Group 17105" transform="translate(193.525 627.646)">
        <g id="Group_17098" data-name="Group 17098" transform="translate(14.432 6.199)">
          <rect id="Rectangle_10877" data-name="Rectangle 10877" width="9.455" height="15.228" fill="#ffa783"/>
        </g>
        <g id="Group_17099" data-name="Group 17099" transform="translate(14.432 6.199)">
          <rect id="Rectangle_10878" data-name="Rectangle 10878" width="9.455" height="15.228" fill="#ffa783"/>
        </g>
        <g id="Group_17100" data-name="Group 17100">
          <path id="Path_21870" data-name="Path 21870" d="M354.24,734.7h-15.96l-8.629-1.084c-3.529-.665-3.724,3.609-2.474,3.633,3.709.07,5.7.971,8.5,1.373,3.208.461,5.15,2.224,5.228,5.215h0v11.136h9.455V743.611c.044-.765,0-2.412.7-3.083A20.03,20.03,0,0,0,354.24,734.7Z" transform="translate(-326.476 -733.545)" fill="#ffa783"/>
        </g>
        <g id="Group_17101" data-name="Group 17101">
          <path id="Path_21871" data-name="Path 21871" d="M354.24,734.7h-15.96l-8.629-1.084c-3.529-.665-3.724,3.609-2.474,3.633,3.709.07,5.7.971,8.5,1.373,3.208.461,5.15,2.224,5.228,5.215h0v11.136h9.455V743.611c.044-.765,0-2.412.7-3.083A20.03,20.03,0,0,0,354.24,734.7Z" transform="translate(-326.476 -733.545)" fill="#ffa783"/>
        </g>
        <g id="Group_17102" data-name="Group 17102">
          <path id="Path_21872" data-name="Path 21872" d="M354.24,734.7h-15.96l-8.629-1.084c-3.529-.665-3.724,3.609-2.474,3.633,3.709.07,5.7.971,8.5,1.373,3.208.461,5.15,2.224,5.228,5.215h0v11.136h9.455V743.611c.044-.765,0-2.412.7-3.083A20.03,20.03,0,0,0,354.24,734.7Z" transform="translate(-326.476 -733.545)" fill="#ffa783"/>
        </g>
        <g id="Group_17103" data-name="Group 17103" transform="translate(13.8 7.507)">
          <path id="Path_21873" data-name="Path 21873" d="M372.824,754.488a4.351,4.351,0,0,1,.283-1.256h0a9.443,9.443,0,0,1-10.442.292,5.38,5.38,0,0,1,.632,2.492h0v6.366h.568S363.653,756.926,372.824,754.488Z" transform="translate(-362.665 -753.231)" fill="#f5916f"/>
        </g>
        <g id="Group_17104" data-name="Group 17104" transform="translate(0.84 2.567)">
          <path id="Path_21874" data-name="Path 21874" d="M331.929,740.633a1.162,1.162,0,0,0-.253-.072l-1.667-.27a1.151,1.151,0,0,0-1.321.952l-.009.06a19.73,19.73,0,0,1,3.068.427Z" transform="translate(-328.679 -740.276)" fill="#f4c0b3"/>
        </g>
      </g>
      <path id="Path_21875" data-name="Path 21875" d="M222.543,770.683l-15.248.388c.225,8.823-1.563,24.053-6.114,28.721a2.9,2.9,0,0,1-1.489.934c-2.684-1.3-31.367-26.956-32.192-27.562h0A17.774,17.774,0,0,0,157.27,769.7l-14.494-.26a17.746,17.746,0,0,0-3.793.343v0c-4.48.469-9.606,3.711-12.7,7.531-5.868,7.253-8.83,20.537-9.054,40.612-.021,1.864-.016,3.692.008,5.463h57.5V799.836c11.9,10.776,17.98,16.189,24.4,16.19h0A17.786,17.786,0,0,0,212.1,810.44c4.878-5,8.1-13.38,9.586-24.9A107.456,107.456,0,0,0,222.543,770.683Z" transform="translate(-3.491 -128.105)" fill="#5587a2"/>
      <path id="Path_21876" data-name="Path 21876" d="M222.543,770.683l-15.248.388c.225,8.823-1.563,24.053-6.114,28.721a2.9,2.9,0,0,1-1.489.934c-2.684-1.3-31.367-26.956-32.192-27.562h0A17.774,17.774,0,0,0,157.27,769.7l-14.494-.26a17.746,17.746,0,0,0-3.793.343v0c-4.48.469-9.606,3.711-12.7,7.531-5.868,7.253-8.83,20.537-9.054,40.612-.021,1.864-.016,3.692.008,5.463h57.5V799.836c11.9,10.776,17.98,16.189,24.4,16.19h0A17.786,17.786,0,0,0,212.1,810.44c4.878-5,8.1-13.38,9.586-24.9A107.456,107.456,0,0,0,222.543,770.683Z" transform="translate(-3.491 -128.105)" fill="#5587a2"/>
      <path id="Path_21877" data-name="Path 21877" d="M149.827,834.268a.572.572,0,0,0-.731.346c-4.311,12.045-4.808,28.413-4.812,28.577a.564.564,0,0,0,.07.285h1a.567.567,0,0,0,.07-.253c0-.162.5-16.352,4.745-28.223A.572.572,0,0,0,149.827,834.268Z" transform="translate(-20.234 -168.193)" fill="#35667c"/>
      <g id="Group_17121" data-name="Group 17121" transform="translate(111.577 562.371)">
        <g id="Group_17116" data-name="Group 17116" transform="translate(0 10.557)">
          <g id="Group_17106" data-name="Group 17106" transform="translate(24.451 50.181)">
            <path id="Path_21878" data-name="Path 21878" d="M175.7,771.246l0,.047c.339,5.431,5.289,7.9,9.745,7.9s9.406-2.473,9.745-7.9l0-.047V769.82c-.575-.067-1.157-.11-1.746-.12l-14.494-.26a17.7,17.7,0,0,0-3.257.25Z" transform="translate(-175.698 -751.215)" fill="#fff"/>
            <path id="Path_21879" data-name="Path 21879" d="M196.143,741.634c-.539,8.631-15.907,8.631-16.445,0V721.65h16.445Z" transform="translate(-178.173 -721.65)" fill="#ffa783"/>
            <path id="Path_21880" data-name="Path 21880" d="M179.7,741c9.238-1.426,14-4.26,16.445-6.641v-12.7H179.7Z" transform="translate(-178.173 -721.65)" fill="#f5916f"/>
          </g>
          <g id="Group_17115" data-name="Group 17115">
            <g id="Group_17107" data-name="Group 17107" transform="translate(0 27.743)">
              <path id="Path_21881" data-name="Path 21881" d="M122.617,668.327a5.52,5.52,0,1,1-5.52-5.52A5.519,5.519,0,0,1,122.617,668.327Z" transform="translate(-111.577 -662.807)" fill="#f5916f"/>
              <path id="Path_21882" data-name="Path 21882" d="M273.035,668.327a5.52,5.52,0,1,1-5.52-5.52A5.519,5.519,0,0,1,273.035,668.327Z" transform="translate(-204.636 -662.807)" fill="#f5916f"/>
            </g>
            <path id="Path_21883" data-name="Path 21883" d="M151.071,590.055c-17.092.036-30.936,12.6-30.936,29.87,0,22.5,17.6,34.157,30.936,34.2,13.335-.042,30.936-11.7,30.936-34.2C182.007,602.656,168.163,590.091,151.071,590.055Z" transform="translate(-116.872 -590.055)" fill="#ffa783"/>
            <g id="Group_17108" data-name="Group 17108" transform="translate(19.697 31.382)">
              <path id="Path_21884" data-name="Path 21884" d="M166.9,674.185a1.835,1.835,0,1,1-1.835-1.835A1.835,1.835,0,0,1,166.9,674.185Z" transform="translate(-163.231 -672.35)" fill="#1b2135"/>
              <path id="Path_21885" data-name="Path 21885" d="M233.336,674.185a1.835,1.835,0,1,1-1.836-1.835A1.835,1.835,0,0,1,233.336,674.185Z" transform="translate(-204.332 -672.35)" fill="#1b2135"/>
            </g>
            <g id="Group_17109" data-name="Group 17109" transform="translate(31.502 29.295)">
              <path id="Path_21886" data-name="Path 21886" d="M195.723,679.69a7.353,7.353,0,0,1-1.537-.171l.185-.864a4.59,4.59,0,0,0,4.251-.884l-2.362-10.7.863-.191,2.458,11.141-.133.164A4.826,4.826,0,0,1,195.723,679.69Z" transform="translate(-194.186 -666.877)" fill="#f5916f"/>
            </g>
            <g id="Group_17110" data-name="Group 17110" transform="translate(14.019 36.052)">
              <path id="Path_21887" data-name="Path 21887" d="M154.091,687.473a2.875,2.875,0,1,1-2.875-2.875A2.875,2.875,0,0,1,154.091,687.473Z" transform="translate(-148.341 -684.598)" fill="#f5916f"/>
              <path id="Path_21888" data-name="Path 21888" d="M244.852,687.473a2.875,2.875,0,1,1-2.875-2.875A2.875,2.875,0,0,1,244.852,687.473Z" transform="translate(-204.492 -684.598)" fill="#f5916f"/>
            </g>
            <g id="Group_17113" data-name="Group 17113" transform="translate(16.945 25.592)">
              <g id="Group_17111" data-name="Group 17111">
                <path id="Path_21889" data-name="Path 21889" d="M156.464,658.236l7.031-1.059a.885.885,0,0,1,.264,1.75c-.029,0-.059.007-.088.008l-7.1.355a.53.53,0,0,1-.105-1.054Z" transform="translate(-156.012 -657.167)" fill="#1b2135"/>
              </g>
              <g id="Group_17112" data-name="Group 17112" transform="translate(26.01)">
                <path id="Path_21890" data-name="Path 21890" d="M224.673,658.236l7.031-1.059a.885.885,0,0,1,.263,1.75c-.029,0-.059.007-.087.008l-7.1.355a.53.53,0,0,1-.106-1.054Z" transform="translate(-224.221 -657.167)" fill="#1b2135"/>
              </g>
            </g>
            <g id="Group_17114" data-name="Group 17114" transform="translate(28.816 50.19)">
              <path id="Path_21891" data-name="Path 21891" d="M192.526,724.556h0c-2.579,0-4.692-.99-5.383-2.521l.8-.363c.624,1.382,2.748,2,4.578,2h0c1.83,0,3.955-.619,4.579-2l.8.363C197.219,723.567,195.106,724.556,192.526,724.556Z" transform="translate(-187.143 -721.672)" fill="#f4704d"/>
            </g>
          </g>
        </g>
        <g id="Group_17120" data-name="Group 17120" transform="translate(1.988)">
          <path id="Path_21892" data-name="Path 21892" d="M117.847,603.472c3.305-1.228,3.229-2.8,4.269-9.773,1.7-11.37,17.592-12.772,42.941-6.518,20.2,4.984,12.231-22.25,6.226-24.488-3.8-1.418-13.716,2.169-20.952,4.66-7.911,2.722-3.594-3.648-9.371-2.381C109.276,571.92,117.847,603.472,117.847,603.472Z" transform="translate(-116.791 -562.371)" fill="#1b2135"/>
          <path id="Path_21893" data-name="Path 21893" d="M261.047,617.109c5.918,5.565,6.16,19.814,4.682,20.228s-1.139-16.165-8.392-17.489C254.816,619.387,261.047,617.109,261.047,617.109Z" transform="translate(-203.37 -596.236)" fill="#1b2135"/>
          <g id="Group_17117" data-name="Group 17117" transform="translate(53.424 3.254)">
            <path id="Path_21894" data-name="Path 21894" d="M259.212,578.172a.572.572,0,0,1-.527-.794c.513-1.22-.24-4.31-1.6-5.469a.572.572,0,1,1,.743-.869c1.635,1.4,2.651,5.01,1.907,6.781A.572.572,0,0,1,259.212,578.172Z" transform="translate(-256.889 -570.904)" fill="#3a4460"/>
          </g>
          <g id="Group_17118" data-name="Group 17118" transform="translate(36.88 12.135)">
            <path id="Path_21895" data-name="Path 21895" d="M218.277,602.5a23.99,23.99,0,0,1-4.305-.383.572.572,0,1,1,.206-1.125c7.272,1.333,16.135-1.089,17.113-6.324a.572.572,0,0,1,1.125.21C231.489,599.839,224.923,602.5,218.277,602.5Z" transform="translate(-213.503 -594.195)" fill="#3a4460"/>
          </g>
          <g id="Group_17119" data-name="Group 17119" transform="translate(51.952 11.439)">
            <path id="Path_21896" data-name="Path 21896" d="M253.6,602.376a.572.572,0,0,1,0-1.144,5.118,5.118,0,0,0,3.967-1.84,8.038,8.038,0,0,0,1.65-6.368.572.572,0,0,1,1.132-.166,9.192,9.192,0,0,1-1.917,7.282A6.231,6.231,0,0,1,253.6,602.376Z" transform="translate(-253.028 -592.37)" fill="#3a4460"/>
          </g>
        </g>
      </g>
    </g>
  </g>
</svg>
